<svg xmlns="http://www.w3.org/2000/svg" viewBox="0 0 1000 1000"  xmlns:v="https://vecta.io/nano"><path d="M156.7 19h675.5v878H156.7z" fill="#fff"/><path d="M813.5 916.5h-627c-26.3 0-47.8-21.4-47.8-47.8v-821c0-26.3 21.4-47.8 47.8-47.8h627.1c26.3 0 47.8 21.4 47.8 47.8v821c-.1 26.4-21.5 47.8-47.9 47.8zm-627-887.4c-10.3 0-18.6 8.4-18.6 18.6v821c0 10.3 8.4 18.6 18.6 18.6h627.1c10.3 0 18.6-8.4 18.6-18.6v-821c0-10.3-8.4-18.6-18.6-18.6H186.5z" fill="#587498"/><circle cx="261.6" cy="170.2" r="44" fill="#596c76"/><path d="M402.2 580.5h568.6v390.3H402.2z" fill="#fff"/><path d="M746.2 185.7H365.3c-8.1 0-14.7-6.6-14.7-14.7s6.6-14.7 14.7-14.7h380.9c8.1 0 14.7 6.6 14.7 14.7s-6.6 14.7-14.7 14.7z" fill="#596c76"/><path d="M952.7 1000H425.5c-26.1 0-47.3-21.2-47.3-47.3V598.8c0-26.1 21.2-47.3 47.3-47.3h527.1c26.1 0 47.3 21.2 47.3 47.3v353.9c.1 26.1-21.1 47.3-47.2 47.3zM425.5 580.5c-10 0-18.2 8.2-18.2 18.2v353.9c0 10 8.2 18.2 18.2 18.2h527.1c10 0 18.2-8.2 18.2-18.2V598.8c0-10-8.2-18.2-18.2-18.2H425.5z" fill="#e86850"/><path d="M24 290.1h361v239H24z" fill="#fff"/><path d="M359.6 551.5H47.8C21.4 551.5 0 530 0 503.7V313.6c0-26.3 21.4-47.8 47.8-47.8h311.8c26.3 0 47.8 21.4 47.8 47.8v190.1c-.1 26.3-21.5 47.8-47.8 47.8zM47.8 294.9c-10.3 0-18.6 8.4-18.6 18.6v190.1c0 10.3 8.4 18.6 18.6 18.6h311.8c10.3 0 18.6-8.4 18.6-18.6v-190c0-10.3-8.4-18.6-18.6-18.6H47.8z" fill="#e86850"/><circle cx="112.7" cy="408.6" r="44" fill="#596c76"/><path d="M706.9 802l282.3-232.3a33.54 33.54 0 0 0-29.8-18H418.7c-12.9 0-24.1 7.3-29.8 18L671.3 802c10.3 8.5 25.3 8.5 35.6 0z" fill="#c45445"/><g fill="#596c76"><circle cx="689.1" cy="691.1" r="44"/><path d="M336 423.3H214.8c-8.1 0-14.7-6.6-14.7-14.7s6.6-14.7 14.7-14.7H336c8.1 0 14.7 6.6 14.7 14.7-.1 8.1-6.6 14.7-14.7 14.7z"/></g></svg>