<svg xmlns="http://www.w3.org/2000/svg" viewBox="0 0 1000 1000"  xmlns:v="https://vecta.io/nano"><path d="M467.1 250.5l1.6 3.1h-30.5C233.9 282.4 74.1 451.9 60.5 660.7a456.92 456.92 0 0 0-.9 23.5c-3.8-4.8-9.6-7.8-16.2-7.8-6.5 0-12.3 3-16.1 7.7.1-8.1.4-16.2.9-24.3 3.3-53.3 15.5-105 36.2-154.1 23.8-56.3 57.9-106.9 101.3-150.3s94-77.5 150.3-101.3c.4-.2.9-.4 1.3-.5h-231a20.55 20.55 0 0 0 8.3-16.6c0-6.8-3.3-12.8-8.3-16.6h356.4c1.6-.2 3.1-.4 4.7-.5 7.6-.9 15.3-1.5 22.9-2-.6.8-1.2 1.7-1.7 2.5-2.9 4.8-4.6 10.5-4.6 16.6.1 4.8 1.2 9.4 3.1 13.5zM586.6 805H408.5c-.4 0-.8-.4-.8-.8V753c0-.4.4-.8.8-.8h178.1c.4 0 .8.4.8.8v51.2c0 .4-.4.8-.8.8zm58.2-348.2v15.3l-56.6 255.6h-86.9V485.4l18.8-13.7-18.8-11.7V268.7c4.4-.7 8.5-2.3 12.1-4.6h14.4c.7 2.5 2.1 5.9 4.2 10.2 21.8 45.7 112.8 182.5 112.8 182.5zM492.9 269v191l-17.6 11.7 17.6 13.7v242.2H406L349.4 472v-15.3S439 322.1 461.7 275.4c2.3-4.8 3.9-8.6 4.7-11.3H479c4.2 2.7 8.9 4.4 13.9 4.9zm479.9 415.1c-3.8-4.7-9.6-7.7-16.1-7.7s-12.4 3.1-16.2 7.8c-.1-7.9-.4-15.8-.9-23.5-13.7-208.8-173.4-378.3-377.8-407.1h-38c.7-1.1 1.3-2.3 1.9-3.6 1.8-4 2.8-8.4 2.8-13 0-6.1-1.7-11.8-4.6-16.6-.6-1-1.3-2-2-2.9 7.7.3 15.3.9 23 1.6l12.5 1.3h356.4c-5 3.8-8.3 9.8-8.3 16.6s3.3 12.8 8.3 16.6h-231c.4.2.9.4 1.3.5C740.4 277.9 791 312 834.4 355.4s77.5 94 101.3 150.3c20.8 49.1 32.9 100.9 36.2 154.1.5 8.1.8 16.2.9 24.3z" fill="#e86850"/><path d="M545.3 220.4l-.5-1.3c-7.3-19.7-26.3-33.8-48.5-33.8-22.5 0-41.7 14.5-48.8 34.6-.1.2-.1.3-.2.5-1.8 5.2-2.7 10.8-2.7 16.6 0 5.4.8 10.6 2.4 15.5.1.4.3.8.4 1.1 2.9 8.5 7.9 16 14.5 21.9 8.4 7.5 19.3 12.4 31.2 13.1 1.1.1 2.2.1 3.3.1 1.7 0 3.4-.1 5.1-.3 11.8-1.2 22.5-6.3 30.7-14.1 6-5.7 10.6-12.8 13.3-20.8.2-.6.4-1.3.6-1.9 1.4-4.7 2.1-9.6 2.1-14.7-.2-5.7-1.2-11.3-2.9-16.5zm-21.5 33.2c-2.6 4.3-6.2 7.9-10.4 10.6-3.6 2.3-7.7 3.9-12.1 4.6-1.7.3-3.4.4-5.1.4-1.1 0-2.2-.1-3.3-.2-5.1-.5-9.8-2.2-13.9-4.8-4.2-2.7-7.8-6.3-10.4-10.6-.6-1-1.2-2-1.6-3.1-1.9-4.1-3-8.7-3-13.5 0-6.1 1.7-11.8 4.6-16.6.5-.9 1.1-1.7 1.7-2.5 5.9-7.9 15.3-13.1 25.9-13.1 10.4 0 19.7 5 25.6 12.7h0c.7.9 1.4 1.9 2 2.9 2.9 4.8 4.6 10.5 4.6 16.6 0 4.6-1 9.1-2.8 13-.5 1.2-1.1 2.4-1.8 3.6zm-413.2-33.2c-6.3-14-20.4-23.7-36.7-23.7-22.2 0-40.3 18.1-40.3 40.3s18.1 40.3 40.3 40.3c16.3 0 30.4-9.7 36.7-23.7 2.3-5.1 3.6-10.7 3.6-16.6 0-6-1.3-11.6-3.6-16.6zm-36.7 37.3c-11.4 0-20.7-9.3-20.7-20.7s9.3-20.7 20.7-20.7c4.7 0 9 1.5 12.4 4.1 5 3.8 8.3 9.8 8.3 16.6s-3.3 12.8-8.3 16.6c-3.5 2.5-7.8 4.1-12.4 4.1zm-13.4 403c-5.2-2.5-11-3.8-17.1-3.8-5.4 0-10.5 1.1-15.2 3C13.4 665.8 3 680.3 3 697.1c0 22.2 18.1 40.3 40.3 40.3s40.3-18.1 40.3-40.3a40.09 40.09 0 0 0-23.1-36.4zm-17.2 57.2c-11.4 0-20.7-9.3-20.7-20.7 0-4.9 1.7-9.5 4.6-13 3.8-4.7 9.6-7.7 16.1-7.7s12.4 3.1 16.2 7.8c2.8 3.5 4.5 8 4.5 12.9.1 11.4-9.2 20.7-20.7 20.7zm928.6-58.1c-4.7-1.9-9.8-3-15.2-3-6.1 0-11.9 1.4-17.1 3.8-13.7 6.4-23.2 20.4-23.2 36.5 0 22.2 18.1 40.3 40.3 40.3s40.3-18.1 40.3-40.3c0-16.8-10.4-31.3-25.1-37.3zm-15.2 58.1c-11.4 0-20.7-9.3-20.7-20.7 0-4.9 1.7-9.4 4.5-12.9 3.8-4.8 9.6-7.8 16.2-7.8 6.5 0 12.3 3 16.1 7.7a20.6 20.6 0 0 1 4.6 13c0 11.4-9.3 20.7-20.7 20.7zm-30.6-521.2c-16.3 0-30.4 9.7-36.7 23.7-2.3 5.1-3.6 10.7-3.6 16.6s1.3 11.5 3.6 16.6c6.3 14 20.4 23.7 36.7 23.7 22.2 0 40.3-18.1 40.3-40.3a40.25 40.25 0 0 0-40.3-40.3zm0 61c-4.7 0-8.9-1.5-12.4-4.1a20.55 20.55 0 0 1-8.3-16.6c0-6.8 3.3-12.8 8.3-16.6a20.73 20.73 0 0 1 12.4-4.1c11.4 0 20.7 9.3 20.7 20.7.1 11.4-9.2 20.7-20.7 20.7z" fill="#587498"/></svg>