<svg xmlns="http://www.w3.org/2000/svg" viewBox="0 0 1000 1000"  xmlns:v="https://vecta.io/nano"><path d="M766.9 1000H233.1c-46.4 0-84.1-39.9-84.1-88.9V90.4c0-49 37.7-88.9 84.1-88.9h533.8c46.4 0 84.1 39.9 84.1 88.9v820.7c0 49-37.7 88.9-84.1 88.9zM233.1 49.2c-21.5 0-39 18.5-39 41.2v820.7c0 22.7 17.5 41.2 39 41.2h533.8c21.5 0 39-18.5 39-41.2V90.4c0-22.7-17.5-41.2-39-41.2H233.1zm243.5 575.7c-1.8 0-3.5-.2-5.3-.6-12.6-2.9-20.5-15.5-17.5-28.1l46.8-203c2.9-12.6 15.6-20.4 28.1-17.6 12.6 2.9 20.5 15.5 17.5 28.1l-46.8 203c-2.5 10.9-12.1 18.2-22.8 18.2z" fill="#e86850"/><g fill="#587498"><path d="M601.5 593.7c-6.4 0-12.8-2.6-17.4-7.7-8.6-9.6-7.9-24.4 1.7-33.1l58.7-52.8-58.7-52.8c-9.6-8.6-10.4-23.5-1.7-33.1s23.5-10.4 33.1-1.7l78.1 70.3c4.9 4.5 7.7 10.8 7.7 17.4s-2.8 13-7.7 17.4l-78.1 70.3c-4.5 3.8-10.1 5.8-15.7 5.8h0zm-203 0c-5.6 0-11.2-2-15.7-6l-78.1-70.3c-4.9-4.5-7.7-10.8-7.7-17.4s2.8-13 7.7-17.4l78.1-70.3c9.6-8.6 24.4-7.9 33.1 1.7 8.6 9.6 7.9 24.4-1.7 33.1L355.5 500l58.7 52.8c9.6 8.6 10.4 23.5 1.7 33.1-4.6 5.2-11 7.8-17.4 7.8h0zM624.1 110H375.9c-9.5 0-17.2-7.7-17.2-17.2h0c0-9.5 7.7-17.2 17.2-17.2h248.2c9.5 0 17.2 7.7 17.2 17.2h0c0 9.5-7.7 17.2-17.2 17.2z"/><circle cx="500" cy="912.3" r="28.3"/></g></svg>