<svg xmlns="http://www.w3.org/2000/svg" width="1013.03" height="844.995"  xmlns:v="https://vecta.io/nano"><style><![CDATA[.B{fill:#d0cde1}.C{fill:#e86850}.D{fill:#a0616a}]]></style><path d="M956.999 270.31c0 35.17-8.33 64.12-22.78 88.92a177.68 177.68 0 0 1-16.19 23.25c-53.12 64.97-151.88 100.53-241.14 158.13-263.48 170.02-292.02-102.42-280.12-270.3 4.8-67.74 31.18-129.79 73.09-177.3a278.22 278.22 0 0 1 28.45-27.97C545.889 24.52 607.359 0 676.889 0c119.29 0 221.16 71.95 261.55 173.34a261.85 261.85 0 0 1 18.56 96.97z" class="C"/><path d="M736.569 60.92l-266.71 32.09a278.22 278.22 0 0 1 28.45-27.97zm197.65 298.31a177.68 177.68 0 0 1-16.19 23.25L689.569 355zm13.54-158.01L560.569 151l377.87 22.34a260.44 260.44 0 0 1 9.32 27.88z" class="B"/><path d="M423.033 72.002l-.08 2.04A28 28 0 0 1 373.6 90.021a28 28 0 0 1-3.326-31.089 25.74 25.74 0 0 1 2.06-3.31 27.99 27.99 0 0 1 50.6 14.1 24.54 24.54 0 0 1 .1 2.28z" class="C"/><path d="M423.033 72.002l-.08 2.04-41.92-5.04 41.9.72.1 2.28zm-10 14.11l-38.78 4.67a28.06 28.06 0 0 1-2.96-3.95zm-11-31l-31.76 3.82a25.74 25.74 0 0 1 2.06-3.31z" class="B"/><path d="M806.766 576.128l-1.027 1.764a28 28 0 0 1-51.086-9.021 28 28 0 0 1 11.636-29.021 25.74 25.74 0 0 1 3.371-1.958 27.99 27.99 0 0 1 38.086 36.175l-.98 2.061z" class="C"/><path d="M806.766 576.128l-1.027 1.764-34.666-24.103 36.674 20.278-.981 2.061zm-15.447 7.776l-36.444-14.054a28.11 28.11 0 0 1-.763-4.877zm4.815-32.54l-29.845-11.514a25.74 25.74 0 0 1 3.371-1.958z" class="B"/><path d="M1005.079 93.453l1.367 1.516a28 28 0 0 1-24.176 45.898 28 28 0 0 1-24.088-19.934 25.74 25.74 0 0 1-.836-3.808 27.99 27.99 0 0 1 46.069-25.235 24.54 24.54 0 0 1 1.664 1.562z" class="C"/><path d="M1005.079 93.453l1.367 1.516-33.53 25.66 30.499-28.739 1.664 1.562zm2.692 17.083l-24.502 30.419c-1.645-.11-3.277-.365-4.877-.761zm-29.519-14.513l-20.07 24.91a25.74 25.74 0 0 1-.836-3.808z" class="B"/><path d="M479.78 609.453s61.446 2.56 61.446 17.922-69.126 0-69.126 0z" class="D"/><path d="M387.612 844.995l-115.21-7.681-5.12-61.446-25.602 53.765-112.65-15.361c2.56-97.289 43.524-192.017 46.084-204.819s8.679-65.696 8.679-65.696c11.188-23.733 69.817-25.961 115.774-23.81 19.048.871 35.946 2.509 46.366 3.687l10.958 1.331c18.357 18.92 30.185 44.702 37.456 73.504 26.217 103.766-6.733 246.525-6.733 246.525z" fill="#2f2e41"/><g class="D"><circle cx="259.6" cy="187.015" r="64.006"/><path d="M216.076 202.376s-17.922 79.367-46.084 102.409 110.09 0 110.09 0-30.723-51.205-7.681-74.247-56.325-28.163-56.325-28.163z"/></g><path d="M346.648 530.086l-42.474 4.711-118.82 13.211-1.562-4.25c-8.628-23.529-50.18-138.022-54.763-172.406-5.12-38.403 48.644-84.488 48.644-84.488s51.205-10.241 66.566-10.241 76.807 23.042 76.807 23.042l22.914 206.124 1.971 17.845z" class="B"/><path d="M394.345 598.47l-86.101-50.462-4.071-13.211-4.608-14.849L259.6 396.954c-20.482-58.885 79.367 104.97 79.367 104.97l4.992 3.866 1.971 17.845 10.958 1.331c18.357 18.92 30.185 44.702 37.456 73.504z" opacity=".15"/><path d="M280.082 304.786s-25.602 33.283-5.12 92.168 48.644 151.054 48.644 151.054L472.1 635.056l20.482-25.602-138.253-107.53s-5.12-194.578-30.723-202.258-43.524 5.12-43.524 5.12z" class="B"/><path d="M153.351 528.806s35.843 74.247 51.205 66.566-38.403-84.488-38.403-84.488z" class="D"/><path d="M149.51 325.267L13.818 437.918s-51.205 35.843 43.524 61.446 102.409 40.964 102.409 40.964 10.241-33.283 23.042-28.163l-110.09-53.765 89.608-53.765z" class="B"/><path d="M94.974 239.549c7.122-3.527 22.848-10.645 36.243-19.22-.939-27.898 2.496-53.223 12.552-66.647 5.645-12.817 17.498-25.648 26.781-35.753 22.798-24.815 73.21-38.667 82.151-26.268 67.625 1.335 74.745 54.343 74.745 54.343-.352 22.172-23.396 22.873-43.582 22.065 1.808 15.136-3.01 30.864-16.96 37.839-26.676 13.338-34.679 30.677-21.341 42.682s37.346 44.015 5.335 52.018-36.013 24.009-26.676 30.678-21.341-12.004-21.341-12.004-5.335 32.011-33.345 24.008c-2.51-.717-5.019-2.555-7.485-5.303-7.565 8.312-14.313 13.227-19.4 13.254-29.13.154-25.637-32.11-25.637-32.11s-34.576 9.71-23.787 5.806 11.251-20.396-17.417-36.734 3.082-40.69 19.163-48.653z" fill="#2f2e41"/><path d="M452.384 323.181l-.464-.061 1.133 4.306c1.071 6.008 2.626 11.92 4.65 17.677l33.226 126.308a21.41 21.41 0 0 0 17.431 15.71l67.76 10.483a21.41 21.41 0 0 0 22.146-11.052l64.394-120.276c2.012-3.332 3.851-6.766 5.508-10.288l2.186-4.084-.341-.045c18.713-44.267 7.613-95.517-27.739-128.073s-87.341-39.408-129.92-17.12-66.577 68.913-59.97 116.516z" fill="#3f3d56"/><path d="M580.278 505.856a23.3 23.3 0 0 1-3.564-.274l-70.828-10.958a23.37 23.37 0 0 1-19.034-17.155l-34.73-132.026c-2.123-6.044-3.754-12.25-4.878-18.556l-.878-5.776c-4.791-37.41 8.28-74.896 35.294-101.215a120.03 120.03 0 0 1 102.099-32.648l-.307 1.977a118.07 118.07 0 0 0-134.931 132.913l.675 4.32a118.28 118.28 0 0 0 4.837 18.4l34.754 132.103a21.37 21.37 0 0 0 17.405 15.688l70.828 10.958a21.41 21.41 0 0 0 22.114-11.036l1.764.943a23.42 23.42 0 0 1-20.619 12.344zm-25.13-36.295l43.096-117.67 2.429.89-43.096 117.67zm-29.855-128.445l2.584-.114 5.501 125.193-2.584.114z" class="B"/><g fill="#3f3d56"><path d="M574.29 565.711l-90.757-14.04a2.59 2.59 0 0 1-2.146-2.95 2.59 2.59 0 0 1 2.937-2.163l90.757 14.04c.918.137 1.692.754 2.029 1.618s.186 1.843-.397 2.565a2.59 2.59 0 0 1-2.424.93zm2.327-19.273l-90.757-14.04c-.918-.137-1.692-.754-2.029-1.618s-.186-1.843.397-2.565a2.59 2.59 0 0 1 2.424-.93l90.757 14.04c.918.137 1.692.754 2.029 1.618s.186 1.843-.397 2.565a2.59 2.59 0 0 1-2.424.93z"/><path d="M578.944 527.165l-90.757-14.04a2.59 2.59 0 0 1-2.146-2.95 2.59 2.59 0 0 1 2.937-2.163l90.757 14.04a2.59 2.59 0 0 1 2.146 2.95 2.59 2.59 0 0 1-2.937 2.163zm-52.854 49.761c18.002 2.785 34.148-4.99 36.063-17.367l-65.192-10.085c-1.915 12.377 11.127 24.667 29.129 27.452z"/></g><path d="M558.714 327.099c-3.872-.598-7.076-3.659-8.833-5.711-.576-.673-1.136-1.37-1.699-2.07-2.046-2.546-3.977-4.951-6.666-6.205-5.937-2.77-12.932 1.099-18.989 5.25l-1.463-2.133c6.659-4.565 14.424-8.782 21.546-5.461 3.235 1.509 5.449 4.265 7.589 6.929l1.647 2.008c1.826 2.133 5.469 5.589 9.372 4.792a12.6 12.6 0 0 0 4.495-2.38c1.006-.751 2.07-1.422 3.181-2.007a12.67 12.67 0 0 1 13.907 1.965c.665.63 1.295 1.296 1.887 1.996 1.164 1.327 2.262 2.579 3.692 3.034 2.114.676 4.349-.533 6.717-1.809 2.442-1.318 4.966-2.681 7.83-2.345.093.011.187.024.279.038 5.096.788 7.445 6.424 8.774 10.629l-2.467.779c-1.806-5.717-4.006-8.56-6.889-8.877-2.051-.241-4.114.872-6.298 2.051-2.738 1.478-5.571 3.007-8.731 1.998-2.115-.673-3.507-2.259-4.852-3.792-.53-.628-1.094-1.226-1.688-1.793-3.036-2.659-7.358-3.27-11.012-1.557-.99.527-1.939 1.129-2.836 1.801-1.605 1.309-3.469 2.264-5.47 2.802-.996.203-2.019.226-3.023.067z" class="B"/></svg>