<svg xmlns="http://www.w3.org/2000/svg" viewBox="0 0 1000 1000"  xmlns:v="https://vecta.io/nano"><path d="M901.2 205.4H98.8C44.3 205.4 0 249.8 0 304.2v233.2c0 54.5 44.3 98.8 98.8 98.8h430.8c13.1-25.2 39.4-42.5 69.8-42.5 30.3 0 56.7 17.3 69.8 42.5h232c54.5 0 98.8-44.3 98.8-98.8V304.2c0-54.4-44.3-98.8-98.8-98.8zm49.4 332c0 27.3-22.2 49.4-49.4 49.4H98.8c-27.3 0-49.4-22.2-49.4-49.4V304.2c0-27.3 22.2-49.4 49.4-49.4h802.4c27.3 0 49.4 22.2 49.4 49.4v233.2z" fill="#e86850"/><path d="M326.7 375.3c-12.9-4.6-23.5-6.9-31.6-6.9-7.9 0-11.9 2.9-11.9 8.6 0 4.4 2.5 7.9 7.6 10.3s13.2 5.1 24.2 8c13.9 3.9 25.4 7.8 34.5 11.6 9.1 3.9 17.1 10 24 18.4 6.8 8.4 10.3 19.4 10.3 33.1 0 14-3.6 25.8-10.9 35.3s-17.1 16.6-29.5 21.2-26.1 6.9-41.3 6.9c-17.2 0-34.5-2.8-52-8.5-17.5-5.6-32.6-13.3-45.3-23.1l23.8-48.5c9.8 8.5 22.1 15.8 36.9 21.8s27.2 9 37.1 9c4.8 0 8.6-.9 11.4-2.6 2.8-1.8 4.2-4.5 4.2-8.2 0-4.4-2.6-7.9-7.9-10.4s-13.5-5.1-24.8-7.9c-13.7-3.5-25.1-7.2-34.2-10.9-9.1-3.8-17-9.6-23.7-17.6-6.6-7.9-10-18.6-10-31.9 0-12.9 3.4-24.2 10.3-33.9 6.8-9.7 16.5-17.1 29.1-22.3s27.2-7.8 43.8-7.8c15.1 0 30.2 2.1 45.3 6.4 15.1 4.2 28.1 9.9 39.2 16.9l-23.3 49c-10.7-6.1-22.4-11.4-35.3-16zm73.7-51.3h164.3v48.8h-100v23.8h90.9v48.8h-90.9v24.1h102.5v48.8H400.4V324zm343 8.9c16.3 8.7 29 20.7 38.1 36s13.7 32.6 13.7 51.8c0 19.4-4.6 36.9-13.7 52.4s-21.8 27.7-38.1 36.4c-16.3 8.8-34.5 13.2-54.9 13.2-20.3 0-38.6-4.4-54.9-13.2s-29-20.9-38.1-36.4-13.7-33-13.7-52.4 4.6-36.8 13.7-52.1 21.8-27.3 38.1-35.9 34.5-12.9 54.9-12.9 38.7 4.4 54.9 13.1zm-74.7 46.7c-6.4 4.2-11.5 9.8-15.2 17-3.8 7.2-5.7 15.3-5.7 24.4s1.9 17.2 5.7 24.5 8.9 13.1 15.2 17.3c6.4 4.3 13.3 6.4 20.6 6.4 7.4 0 14.1-2.1 20.2-6.2 6.1-4.2 10.9-9.9 14.4-17.3s5.3-15.6 5.3-24.7c0-9-1.8-17.2-5.3-24.5s-8.3-13-14.4-17c-6.1-4.1-12.8-6.1-20.2-6.1-7.3-.1-14.2 2-20.6 6.2zm120 466.4l-91.2-91.3c18.8-22.3 30.2-51.1 30.2-82.5 0-12.5-1.8-24.6-5.2-36-5.4-18.5-14.9-35.4-27.5-49.4-23.5-26.3-57.6-42.8-95.6-42.8s-72.1 16.6-95.6 42.8c-12.6 14.1-22.1 30.9-27.5 49.4-3.4 11.4-5.2 23.5-5.2 36 0 70.7 57.5 128.2 128.2 128.2 23.2 0 45-6.2 63.8-17l94.1 94c8.7 8.7 22.8 8.7 31.5 0 8.7-8.6 8.7-22.7 0-31.4zm-189.3-95.2c-43.3 0-78.5-35.2-78.5-78.5 0-13 3.2-25.2 8.7-36 13.1-25.2 39.4-42.5 69.8-42.5 30.3 0 56.7 17.3 69.8 42.5 5.6 10.8 8.7 23 8.7 36 0 43.2-35.2 78.5-78.5 78.5z" fill="#587498"/></svg>