<svg xmlns="http://www.w3.org/2000/svg" xmlns:xlink="http://www.w3.org/1999/xlink" width="724.603" height="527" xmlns:v="https://vecta.io/nano"><path d="M682.128 3.488H129.195A3.55 3.55 0 0 0 125.65 0h-21.778a3.55 3.55 0 0 0-3.545 3.488h-5.333A3.55 3.55 0 0 0 91.45 0H69.672a3.55 3.55 0 0 0-3.545 3.488H46.723C23.276 3.514 4.274 22.515 4.248 45.963v.418c-.067-.004-.13-.02-.198-.02h-.498A3.55 3.55 0 0 0 0 49.912V91.45a3.55 3.55 0 0 0 3.551 3.551h.498c.068 0 .132-.016.198-.02v389.544c.027 23.447 19.028 42.448 42.475 42.474h635.406c23.447-.027 42.448-19.027 42.474-42.474V45.963c-.027-23.447-19.027-42.448-42.474-42.474zm29.69 481.037c-.019 16.39-13.3 29.671-29.69 29.69H46.723c-16.39-.018-29.672-13.3-29.691-29.69V45.963c.019-16.39 13.301-29.672 29.691-29.69h635.406c16.39.019 29.671 13.3 29.69 29.69z" fill="#ccc"/><path d="M682.128 521.318H46.723c-20.31-.023-36.77-16.482-36.793-36.793V45.963C9.953 25.652 26.412 9.193 46.723 9.17h635.405c20.311.023 36.77 16.482 36.793 36.792v438.563c-.023 20.311-16.482 36.77-36.793 36.793z" fill="#e6e6e6"/><g fill="#fff"><path d="M682.323 491.678H46.528a8.11 8.11 0 0 1-8.098-8.098V46.908a8.11 8.11 0 0 1 8.098-8.098h635.794a8.11 8.11 0 0 1 8.098 8.098v436.672a8.11 8.11 0 0 1-8.098 8.098z"/><circle cx="24.32" cy="264.484" r="3.04"/></g><path d="M277.46 96.592H142.394c-22.061.025-39.938 17.902-39.963 39.963v12.208c-.562-.155-1.164-.036-1.626.32s-.729.908-.722 1.491v9.388c-.007.583.26 1.135.722 1.491s1.064.475 1.626.32v14.215c-.562-.155-1.164-.036-1.626.32s-.729.909-.721 1.491v23.471c-.007.583.26 1.135.721 1.491s1.064.475 1.626.32v8.582c-.562-.155-1.164-.036-1.626.32s-.729.909-.721 1.491v23.471c-.007.583.26 1.135.721 1.491s1.064.475 1.626.32v247.855c.025 22.061 17.902 39.938 39.963 39.963H277.46c22.061-.025 39.938-17.902 39.963-39.963V136.555c-.025-22.061-17.902-39.938-39.963-39.963zm31.514 390.022c-.02 17.396-14.117 31.494-31.514 31.514H142.394c-17.396-.02-31.494-14.117-31.514-31.514V136.555c.02-17.396 14.117-31.494 31.514-31.514H277.46c17.396.02 31.494 14.117 31.514 31.514z" fill="#ccc"/><path d="M277.46 522.821H142.394c-19.988-.023-36.185-16.22-36.208-36.208V136.555c.023-19.988 16.22-36.185 36.208-36.208H277.46c19.988.023 36.185 16.22 36.208 36.208v350.058c-.023 19.988-16.22 36.185-36.208 36.208z" fill="#e6e6e6"/><g fill="#fff"><path d="M280.798 517.188H139.056c-13.481-.015-24.405-10.94-24.421-24.421V130.401c.015-13.481 10.94-24.405 24.421-24.421h18.485a4.04 4.04 0 0 1 4.036 4.036 11.94 11.94 0 0 0 11.924 11.924h70.974a11.94 11.94 0 0 0 11.924-11.924 4.04 4.04 0 0 1 4.036-4.036h20.362c13.481.015 24.405 10.94 24.421 24.421v362.367c-.015 13.481-10.94 24.405-24.421 24.421zm-64.769-402.993H199.13a1.88 1.88 0 0 1-1.626-2.816 1.88 1.88 0 0 1 1.626-.939h16.899a1.88 1.88 0 0 1 1.873 1.878 1.88 1.88 0 0 1-1.873 1.878z"/><circle cx="227.765" cy="112.786" r=".939"/></g><path d="M228.717 202.434l.196 4.368c22.33-1 48.186.945 75.706 5.538v-4.429c-27.561-4.557-53.477-6.481-75.902-5.477z" fill="#ccc"/><path d="M200.951 287.985q-.26 2.507-.424 5.045-.346 4.991-.346 10.06c.036 64.62 42.504 121.545 104.437 139.988V163.077a146.08 146.08 0 0 0-103.667 124.908z" fill="#587499"/><g fill="#ccc"><circle cx="128.076" cy="200.458" r="2.879"/><circle cx="121.94" cy="313.131" r="5.687"/><circle cx="229.035" cy="164.191" r="4.119"/><circle cx="135.327" cy="393.453" r="3.286"/><circle cx="201.704" cy="439.191" r="3.559"/><path d="M305.157 80.869h-7.023v-7.023h-3.768v7.023h-7.026v3.77h7.026v7.023h3.768v-7.023h7.023v-3.77z"/></g><circle cx="254.136" cy="278.548" r="12.271" opacity=".1"/><circle cx="260.271" cy="365.005" r="12.271" opacity=".1"/><path d="M206.134 288.072c-15.058-10.111-26.274-20.086-33.336-29.649-7.045-9.54-9.557-18.157-7.467-25.614s8.715-13.514 19.692-18.002c11.003-4.499 25.769-7.192 43.888-8.004l-.195-4.368c-38.8 1.739-62.806 12.107-67.595 29.194s10.331 38.422 42.575 60.073c26.295 17.657 61.513 33.962 100.922 46.876v-4.602c-38.478-12.716-72.813-28.666-98.484-45.905z" fill="#ccc"/><path d="M206.132 291.57q-2.669-1.795-5.181-3.585-.26 2.507-.424 5.045 1.556 1.086 3.17 2.169c26.295 17.657 61.512 33.963 100.921 46.877v-4.602c-38.477-12.716-72.811-28.666-98.486-45.904z" opacity=".1"/><path d="M368.977 221.149c-17.197-4.82-34.242-8.746-50.781-11.768v4.443c16.156 2.979 32.8 6.825 49.6 11.534 53.485 14.991 101.882 36.838 132.782 59.938l2.618-3.502c-31.315-23.411-80.237-45.516-134.221-60.647z" fill="#ccc"/><path d="M497.372 303.091a146.13 146.13 0 0 0-179.175-142.253v284.497c66.328 15.44 134.526-16.993 164.41-78.187q1.13-2.304 2.173-4.652a145.5 145.5 0 0 0 12.592-59.405z" fill="#587499"/><circle cx="355.204" cy="129.05" r="1.673" fill="#f2f2f2"/><g fill="#ccc"><circle cx="468.435" cy="139.091" r="3.79"/><circle cx="602.862" cy="296.397" r="6.154"/><circle cx="554.742" cy="198.111" r="2.64"/><circle cx="545.501" cy="283.919" r="2.64"/><path d="M473.192 460.867h-4.412v-4.409h-2.365v4.409h-4.409v2.366h4.409v4.41h2.365v-4.41h4.412v-2.366zm101.779-22.571h-3.296V435h-1.771v3.296h-3.296v1.77h3.296v3.296h1.771v-3.296h3.296v-1.77z"/></g><circle cx="353.531" cy="188.744" r="12.271" opacity=".1"/><circle cx="353.531" cy="297.513" r="12.271" opacity=".1"/><circle cx="419.35" cy="231.694" r="12.271" opacity=".1"/><circle cx="460.069" cy="314.804" r="12.271" opacity=".1"/><path d="M530.763 309.237c-5.762-8.842-15.036-18.074-27.565-27.441l-2.618 3.502c24.347 18.202 35.688 35.6 31.935 48.989-2.09 7.457-8.715 13.514-19.692 18.002-11.004 4.499-25.77 7.192-43.889 8.004q-5.775.258-11.851.258c-35.453-.001-78.2-6.565-121.905-18.815q-8.596-2.409-16.982-5.04v4.578q7.81 2.427 15.801 4.672c44.087 12.357 87.247 18.977 123.107 18.976 4.105 0 8.121-.087 12.025-.262 38.8-1.739 62.806-12.107 67.595-29.194 2.221-7.926.216-16.751-5.962-26.23z" fill="#ccc"/><path d="M468.935 363.79q-5.773.258-11.853.258c-35.449 0-78.201-6.563-121.905-18.813q-8.596-2.409-16.981-5.04v4.579q7.809 2.426 15.8 4.672c44.089 12.356 87.247 18.975 123.107 18.975a269.13 269.13 0 0 0 12.028-.262q7.074-.315 13.475-1.01 1.131-2.304 2.173-4.652-7.437.914-15.845 1.294z" opacity=".1"/><circle cx="419.301" cy="180.5" r="16" fill="#fff"/><use xlink:href="#B" fill="#3f3d56"/><circle cx="353.301" cy="238.5" r="16" fill="#fff"/><use xlink:href="#B" x="-66" y="58" fill="#3f3d56"/><circle cx="353.301" cy="135.5" r="16" fill="#fff"/><use xlink:href="#B" x="-66" y="-45" fill="#ccc"/><circle cx="460.301" cy="259.5" r="16" fill="#fff"/><use xlink:href="#B" x="41" y="79" fill="#ccc"/><circle cx="254.301" cy="223.5" r="16" fill="#fff"/><use xlink:href="#C" fill="#ccc"/><circle cx="260.301" cy="310.5" r="16" fill="#fff"/><use xlink:href="#C" x="6" y="87" fill="#3f3d56"/><defs ><path id="B" d="M419.35 156.95c-12.63 0-22.869 10.239-22.869 22.869s22.869 54.105 22.869 54.105 22.869-41.475 22.869-54.105-10.239-22.869-22.869-22.869zm0 34.025a10.6 10.6 0 0 1-7.494-18.092 10.6 10.6 0 0 1 18.092 7.494 10.6 10.6 0 0 1-10.598 10.598h0z"/><path id="C" d="M254.35 199.95c-12.63 0-22.869 10.239-22.869 22.869s22.869 54.105 22.869 54.105 22.869-41.475 22.869-54.105-10.239-22.869-22.869-22.869zm0 34.025a10.6 10.6 0 0 1-10.598-10.598 10.6 10.6 0 0 1 10.598-10.598 10.6 10.6 0 0 1 7.494 18.092 10.6 10.6 0 0 1-7.494 3.104h0z"/></defs></svg>