<svg xmlns="http://www.w3.org/2000/svg" viewBox="0 0 1000 1000"  xmlns:v="https://vecta.io/nano"><path d="M569.2 999.6H430.8c-33.8 0-62.6-23.1-70-56.2l-17.6-78c-28.6-12.1-55.8-27.9-81.4-47.2l-75.8 24c-32.6 10-67.9-3.7-84.3-32.8L32.7 690c-16.5-29.6-10.9-66 13.4-88.9l58.8-54c-1.8-15.8-2.7-31.6-2.7-47s.9-31.2 2.7-47l-58.5-53.8c-24.6-23.1-30.2-59.5-13.9-88.7l69.4-120.1c16.2-28.7 51.5-42.6 84-32.5l75.9 23.9c25.5-19.3 52.8-35.1 81.4-47.2l17.6-78c7.4-33 36.2-56.1 70-56.1h138.5c33.8 0 62.6 23.1 70 56.2l17.6 78c28.6 12.1 55.8 27.9 81.4 47.2l75.9-23.9c32.5-10.2 67.9 3.7 84.3 32.8l69 119.4c16.5 29.6 10.9 66-13.4 88.9l-58.8 54c1.8 15.8 2.7 31.6 2.7 47s-.9 31.2-2.7 47l58.5 53.8.2.2c24.4 22.9 30 59.3 13.6 88.5l-69.4 120.1c-16.2 28.7-51.5 42.6-84 32.5l-76-24c-25.5 19.3-52.8 35.1-81.4 47.2l-17.6 78c-7.4 33-36.2 56.1-70 56.1h0zM268.3 752.3c7.2 0 14.2 2.5 19.9 7.1 28.5 23.5 59.7 41.6 92.8 53.8 9.9 3.7 17.3 12.1 19.7 22.4l21.2 94.1c1 4.3 4.8 7.4 9.1 7.4h138.5c4.3 0 8.1-3.1 9.1-7.4l21.2-94.1c2.3-10.3 9.7-18.8 19.7-22.4 33-12.2 64.2-30.4 92.8-53.8 8.2-6.7 19.1-8.9 29.3-5.7l91.6 28.9c4.3 1.3 9-.2 11-3.9l69.4-120.1c2.1-3.7 1.3-8.8-2-12L841.3 582c-7.7-7-11.3-17.4-9.7-27.6 2.7-18.3 4.2-36.6 4.2-54.4s-1.4-36.1-4.2-54.4c-1.5-10.3 2.1-20.6 9.7-27.6l70.4-64.8c3.2-3 4-8.1 1.7-12.2l-69-119.4c-2.2-4-6.7-5.5-11.3-4.2l-91.5 28.9c-10.2 3.2-21.1 1-29.3-5.7-28.5-23.5-59.7-41.6-92.8-53.8-9.9-3.7-17.3-12.1-19.7-22.4l-21.2-94.1c-1.1-4.2-4.9-7.4-9.2-7.4H430.8c-4.3 0-8.1 3.1-9.1 7.4l-21.2 94.1c-2.3 10.3-9.7 18.7-19.6 22.4-33 12.2-64.2 30.3-92.8 53.8-8.2 6.7-19.1 8.9-29.3 5.7l-91.6-28.9c-4.3-1.3-9 .2-11 3.9l-69.4 120c-2.1 3.7-1.3 8.9 2.1 12.1l70.2 64.5c7.7 7 11.3 17.4 9.7 27.6-2.7 18.3-4.2 36.6-4.2 54.4s1.4 36.1 4.2 54.4c1.5 10.3-2.1 20.6-9.7 27.6l-70.4 64.8c-3.2 3-4 8.1-1.7 12.2l69 119.4c2.3 4 6.8 5.6 11.3 4.2l91.5-28.9c3.1-.9 6.3-1.3 9.5-1.3h0zm200.5-85.8c-2.4 0-4.7-.2-7.1-.8-16.8-3.9-27.3-20.7-23.4-37.4l62.5-270.6c3.9-16.9 20.9-27.2 37.4-23.4 16.8 3.9 27.3 20.7 23.4 37.4l-62.5 270.6c-3.3 14.5-16.1 24.2-30.3 24.2z" fill="#e86850"/><path d="M635.3 624.9c-8.5 0-17-3.5-23.2-10.3-11.5-12.8-10.5-32.6 2.3-44.1l78.3-70.4-78.3-70.4c-12.8-11.5-13.9-31.3-2.3-44.1s31.3-13.8 44.1-2.3L760.3 477c6.6 6 10.3 14.4 10.3 23.2s-3.7 17.3-10.3 23.2l-104.1 93.7c-6 5.2-13.4 7.8-20.9 7.8h0zm-270.6 0c-7.5 0-14.9-2.6-20.9-8l-104.1-93.7c-6.6-6-10.3-14.4-10.3-23.2s3.7-17.3 10.3-23.2l104.1-93.7c12.8-11.5 32.5-10.5 44.1 2.3 11.5 12.8 10.5 32.6-2.3 44.1L307.3 500l78.3 70.4c12.8 11.5 13.9 31.3 2.3 44.1-6.2 6.9-14.7 10.4-23.2 10.4h0z" fill="#587498"/></svg>