<svg xmlns="http://www.w3.org/2000/svg" viewBox="0 0 1000 1000"  xmlns:v="https://vecta.io/nano"><g fill="#fff"><path d="M294.4 933.9s5.6 8.8 25.1 14.4 315 0 315 0l7.4-34.4-47.4-53.9H363.1l-58.5 40.9-10.2 33z"/><path d="M390.1 753.1h157V860h-157zM24.9 477.4V87.8l61.3-39h781.5l41.8 63.2v590l-42.7 43.7H75.1l-50.2-55.8z"/></g><path d="M842.5 35.8H96.9c-47.7 0-86.6 38.8-86.6 86.6v556.8c0 47.7 38.8 86.6 86.6 86.6h276.2v85h-10.6c-46.8 0-84.9 38.1-84.9 84.9 0 16.1 13.1 29.3 29.3 29.3h325.6c16.1 0 29.3-13.1 29.3-29.3 0-46.8-38.1-84.9-84.9-84.9h-10.6v-85h276.2c47.7 0 86.6-38.8 86.6-86.6V122.3c-.1-47.7-38.9-86.5-86.6-86.5zm-438.2 730h130.8v85H404.3v-85zm172.5 116.1c29 0 52.8 23.1 53.7 51.9H308.8c1-28.8 24.7-51.9 53.7-51.9h214.3zm321.1-202.7c0 30.6-24.9 55.4-55.4 55.4H96.9c-30.6 0-55.4-24.9-55.4-55.4v-55.4h856.4v55.4zm0-86.6H41.4V122.3c0-30.6 24.9-55.4 55.4-55.4h745.6c30.6 0 55.4 24.9 55.4 55.4v470.3z" fill="#e86850"/><path d="M138.7 208.9h669.2v59.5H138.7zm0 88.3h334.6v22.3H138.7zm0 36.1h334.6v22.3H138.7zm0 36.2h334.6v22.3H138.7zm0 36.2h334.6V428H138.7zm0 36.1h334.6v22.3H138.7zm0 35.6h334.6v22.3H138.7zM490 297.2h317.9v202.5H490z" fill="#587498"/><circle cx="467.2" cy="679.2" r="22.8" fill="#e86850"/><path d="M651.2 477.9H973v472.7H651.2z" fill="#fff"/><path d="M676.3 970.9c-27.7 0-50.2-23.6-50.2-52.6V506.6c0-29 22.5-52.6 50.2-52.6H944c27.7 0 50.2 23.6 50.2 52.6v411.7c0 29-22.5 52.6-50.2 52.6H676.3zm0-477c-6.4 0-11.5 5.7-11.5 12.6v411.7c0 7 5.2 12.6 11.5 12.6H944c6.4 0 11.5-5.7 11.5-12.6V506.6c0-7-5.2-12.6-11.5-12.6H676.3z" fill="#e86850"/><path d="M944 462c23.3 0 42.2 20 42.2 44.6v411.7c0 24.6-18.9 44.6-42.2 44.6H676.3c-23.3 0-42.2-20-42.2-44.6V506.6c0-24.6 18.9-44.6 42.2-44.6H944M676.3 938.9H944c10.8 0 19.6-9.3 19.6-20.7V506.6c0-11.4-8.8-20.7-19.6-20.7H676.3c-10.8 0-19.6 9.3-19.6 20.7v411.7c0 11.3 8.8 20.6 19.6 20.6m267.7-493H676.3c-32.1 0-58.2 27.2-58.2 60.7v411.7c0 33.4 26.1 60.7 58.2 60.7H944c32.1 0 58.2-27.2 58.2-60.7V506.6c.1-33.5-26.1-60.7-58.2-60.7h0zm-267.7 477c-1.7 0-3.5-1.9-3.5-4.6V506.6c0-2.7 1.8-4.6 3.5-4.6H944c1.7 0 3.5 1.9 3.5 4.6v411.7c0 2.7-1.8 4.6-3.5 4.6H676.3h0z" fill="#fff"/><g fill="#587498"><path d="M873 516.4H747.3c-4.5 0-8.1-3.6-8.1-8.1v-1.1c0-4.5 3.6-8.1 8.1-8.1H873c4.5 0 8.1 3.6 8.1 8.1v1.1c-.1 4.5-3.7 8.1-8.1 8.1z"/><circle cx="810.1" cy="918.9" r="14.2"/><path d="M676.2 557.7h270.6v24H676.2zm0 215.2h270.6v9H676.2zm0 14.6h270.6v9H676.2zm0 14.6h270.6v9H676.2zm0 14.7h270.6v9H676.2zm0 14.6h270.6v9H676.2zm0 14.4h205.5v9H676.2zm0-252.4h270.6v161.1H676.2z"/></g></svg>