<svg xmlns="http://www.w3.org/2000/svg" viewBox="0 0 1000 1000"  xmlns:v="https://vecta.io/nano"><path d="M669 404.5v51.8c0 3.8-3.1 6.9-6.9 6.9h-350c-4.6 0-9 1.8-12.2 5.1L259.2 509v-28.5a17.31 17.31 0 0 0-17.3-17.3h-35.1c-3.8 0-6.9-3.1-6.9-6.9V183.6c0-3.8 3.1-6.9 6.9-6.9h289.9v158.8c0 38.1 31 69 69 69H669zm252.4-269.2v200.2c0 19-15.5 34.5-34.5 34.5h-321c-19 0-34.5-15.5-34.5-34.5V135.3c0-19 15.5-34.5 34.5-34.5h321c19 0 34.5 15.5 34.5 34.5z" fill="#fff"/><path d="M506.1 813.2c-3.2-3.2-7.7-5.1-12.2-5.1s-9 1.8-12.2 5.1c-3.2 3.2-5.1 7.7-5.1 12.2 0 4.6 1.8 9 5.1 12.2 3.2 3.2 7.7 5.1 12.2 5.1s9-1.8 12.2-5.1c3.2-3.2 5.1-7.7 5.1-12.2-.1-4.6-1.9-9-5.1-12.2zM588.3 654V527c0-5.7-2.8-11.1-7.6-14.3a17.41 17.41 0 0 0-16.1-1.7L267.2 630.8h-95.8c-54.7 0-99.1 44.5-99.1 99.1 0 54.7 44.5 99.1 99.1 99.1h11.4v103.6a17.31 17.31 0 0 0 17.3 17.3h70.5a17.31 17.31 0 0 0 17.3-17.3v-95.3l276.8 111.3c2.1.8 4.3 1.2 6.4 1.2 3.4 0 6.8-1 9.7-3 4.8-3.2 7.6-8.6 7.6-14.3v-127c34.6-7.9 60.5-38.9 60.5-75.8-.1-36.9-26-67.9-60.6-75.7zM253.2 915.4h-35.9V829h35.9v86.4zm0-120.9h-81.9c-35.6 0-64.6-29-64.6-64.6s29-64.6 64.6-64.6h81.9v129.2zm300.5 112.6h0l-266-107V659.7l188.8-76.1v171.3a17.31 17.31 0 0 0 17.3 17.3 17.31 17.31 0 0 0 17.3-17.3V569.7l42.6-17.2v354.6zm34.6-137.6v-79.3c15.3 6.7 26 21.9 26 39.7 0 17.6-10.8 32.9-26 39.6z" fill="#e86850"/><path d="M614.3 729.8c0 17.7-10.7 33-26 39.7v-79.3c15.2 6.6 26 21.9 26 39.6zm-361-64.5v129.2h-81.9c-35.6 0-64.6-29-64.6-64.6s29-64.6 64.6-64.6h81.9zm300.4-112.8V907h0l-266-107V659.7l188.8-76.1v171.3a17.31 17.31 0 0 0 17.3 17.3 17.31 17.31 0 0 0 17.3-17.3V569.7l42.6-17.2z" fill="#fff"/><path d="M813.4 713.1h-97.7a17.31 17.31 0 0 0-17.3 17.3 17.24 17.24 0 0 0 17.3 17.3h97.7a17.31 17.31 0 0 0 17.3-17.3 17.24 17.24 0 0 0-17.3-17.3zm-80.1-126.5c-6.7-6.7-17.7-6.7-24.4 0l-33.7 33.7c-6.7 6.7-6.7 17.7 0 24.4 3.4 3.4 7.8 5.1 12.2 5.1s8.8-1.7 12.2-5.1l33.7-33.7c6.7-6.7 6.7-17.7 0-24.4zm1.3 261.4l-34.8-34.8c-6.7-6.7-17.7-6.7-24.4 0s-6.7 17.7 0 24.4l34.8 34.8c3.4 3.4 7.8 5.1 12.2 5.1s8.8-1.7 12.2-5.1c6.7-6.7 6.7-17.6 0-24.4zM886.8 66.3h-321c-38.1 0-69 31-69 69v6.9H206.9c-22.8 0-41.4 18.6-41.4 41.4v272.7c0 22.8 18.6 41.4 41.4 41.4h17.8v52.9c0 7 4.2 13.3 10.7 15.9 2.1.9 4.4 1.3 6.6 1.3 4.5 0 8.9-1.8 12.2-5.1l65.1-65.1h342.8c22.8 0 41.4-18.6 41.4-41.4v-51.8h183.3c38.1 0 69-31 69-69V135.3c.1-38.1-30.9-69-69-69zM669 456.3c0 3.8-3.1 6.9-6.9 6.9h-350c-4.6 0-9 1.8-12.2 5.1L259.2 509v-28.5a17.31 17.31 0 0 0-17.3-17.3h-35.1c-3.8 0-6.9-3.1-6.9-6.9V183.6c0-3.8 3.1-6.9 6.9-6.9h289.9v158.8c0 38.1 31 69 69 69H669v51.8zm252.4-120.8c0 19-15.5 34.5-34.5 34.5h-321c-19 0-34.5-15.5-34.5-34.5V135.3c0-19 15.5-34.5 34.5-34.5h321c19 0 34.5 15.5 34.5 34.5v200.2zM795.7 220.4l-118.1-68.2c-5.3-3.1-11.9-3.1-17.3 0-5.3 3.1-8.6 8.8-8.6 14.9v136.4c0 6.2 3.3 11.9 8.6 14.9 2.7 1.5 5.6 2.3 8.6 2.3a17.31 17.31 0 0 0 8.6-2.3l118.1-68.2c5.3-3.1 8.6-8.8 8.6-14.9.1-6.1-3.2-11.8-8.5-14.9zm-109.5 53.3v-76.6l66.3 38.3-66.3 38.3zm-243.7-26.2H269.9a17.31 17.31 0 0 0-17.3 17.3 17.31 17.31 0 0 0 17.3 17.3h172.6a17.31 17.31 0 0 0 17.3-17.3c-.1-9.6-7.8-17.3-17.3-17.3zm12.2 101.7c-3.2-3.2-7.7-5.1-12.2-5.1s-9 1.8-12.2 5.1c-3.2 3.2-5.1 7.7-5.1 12.2s1.8 9 5.1 12.2c3.2 3.2 7.7 5.1 12.2 5.1 4.6 0 9-1.8 12.2-5.1 3.2-3.2 5.1-7.7 5.1-12.2s-1.9-9-5.1-12.2zm-77-5.1H269.9a17.31 17.31 0 0 0-17.3 17.3 17.24 17.24 0 0 0 17.3 17.3h107.8a17.31 17.31 0 0 0 17.3-17.3 17.24 17.24 0 0 0-17.3-17.3z" fill="#e86850"/></svg>