<svg xmlns="http://www.w3.org/2000/svg" xmlns:xlink="http://www.w3.org/1999/xlink" width="890.069" height="692.728" xmlns:v="https://vecta.io/nano"><style><![CDATA[.B{opacity:.1}.C{fill:#587499}.D{fill:#fdc2cc}.E{stroke:#535461}.F{stroke-miterlimit:10}.G{stroke-width:2}]]></style><defs><linearGradient id="A" x1="507.947" y1="790.481" x2="507.947" y2="154.92" gradientUnits="userSpaceOnUse"><stop offset="0" stop-color="gray" stop-opacity=".25"/><stop offset=".535" stop-color="gray" stop-opacity=".12"/><stop offset="1" stop-color="gray" stop-opacity=".1"/></linearGradient><path id="B" d="M273.34 222.353h-3.69l-5.632 20.587s-1.942 7.186-3.884 8.934 1.748 17.674 1.748 17.674-2.136 11.265-3.884 14.178 2.719 10.1 2.719 10.1l8.934 20.976 23.695 6.215s41.758 9.128 43.7 10.488 3.69-.583 5.05-13.207 5.05-37.096 7.963-38.262c0 0-23.307 2.525-25.249 2.136s-11.265.194-11.265.194-12.236-.777-14.178.388 2.525-5.641 2.525-5.641a18.73 18.73 0 0 0 0-9.508c-1.36-5.244-2.136-64.676-28.551-45.254z"/></defs><g class="C"><ellipse cx="324" cy="676.395" rx="324" ry="11.547" class="B"/><path d="M238.822 20.964C259.463 2.57 291.863-1.179 321.355.287c92.634 4.602 176.254 49.324 248.584 99.91 26.185 18.313 51.965 38.048 68.962 63.266 34.6 51.336 24.337 122.453-23.776 164.745-16.369 14.389-36.213 25.419-56.585 35.198-36.222 17.386-75.305 31.343-116.416 35.316-29.317 2.833-58.995.53-88.14-3.423-81.43-11.044-161.36-35.463-228.352-77.243-29.383-18.324-57.077-41.106-69.188-70.75s-4.36-67.21 25.643-84.756c12.409-7.257 27.245-10.535 41.77-13.612 21.38-4.53 43.104-8.996 62.398-18.205 19.928-9.512 43.526-27.907 39.58-48.962-4.234-22.591-7.631-42.431 12.987-60.804z" class="B"/><ellipse cx="803.416" cy="685.062" rx="86.653" ry="7.667" class="B"/></g><path d="M606.904 364.53c-1.411-2.731-8.869-19.702-8.869-19.702l-12.497-32.382s-8.869-13.655-8.869-16.191-16.125-12.68-16.125-12.68l-14.11-4.292c-1.008-.39-16.528-5.524-16.528-5.524s-6.112-8.037-6.982-5.938v.005c-.032-.053-.064-.099-.096-.154a20.75 20.75 0 0 1-2.33-7.514c-.033-.234-.062-.48-.091-.724a29.91 29.91 0 0 0 13.128-24.628 29.51 29.51 0 0 0-.258-3.828c.111-.069.227-.13.347-.183.251-.109.187-.198.003-.29.063-.033.126-.068.19-.095.334-.145.111-.255-.212-.385l.019-.01c.455-.198-.12-.328-.582-.537l-.075-.405c.102-.257.165-.528.185-.804.041.02.078.042.122.061.112-.503.11-1.024-.008-1.526-.029.102-.064.202-.105.3.059-.926-.391-1.811-1.173-2.309l-.072-.062.855-8.751c12.605-.596 14.816-22.04 11.941-23.231s0-3.773 0-8.935-9.509-10.921-9.509-10.921-3.98 1.986-10.172-7.942-28.968-11.516-30.516-8.935-11.72 5.957-24.988 9.729-10.836 19.459-8.624 22.834c1.822 2.791 2.888 6.006 3.096 9.332 0 1.986 4.202 10.325 4.202 10.325-1.325 2.89 2.047 18.721 3.046 23.22l-.046.415c-.008.014-.02.025-.028.039a2.12 2.12 0 0 0-.129.226 2.59 2.59 0 0 0-.204 1.492c-.073.554.004 1.117.224 1.631a29.76 29.76 0 0 0 10.552 22.202l.046.822c.186 3.675.29 8.021.097 12.18l-.038.633a4.76 4.76 0 0 0-3.373 2.66c-1.25 2.403-8.506 6.11-8.506 6.11s-12.699.585-13.908 2.926-19.552 10.144-19.552 10.144-9.675 5.657-8.264 12.094c.737 3.364-1.332 8.589-3.477 12.815-4.485-1.701-9.156-2.866-13.915-3.47L421 324.209l-.342.526-5.845 20.678s-2.016 7.218-4.031 8.973 1.814 17.752 1.814 17.752-2.217 11.314-4.031 14.24 2.822 10.144 2.822 10.144l9.272 21.068 24.591 6.242 4.287.914q-.125.755-.255 1.505c-1.185 6.711-2.741 12.883-4.636 14.552-4.636 4.097-4.434 22.433-4.434 22.433l.202 25.945s1.613 31.992.806 33.162c-.509.739.512 1.944 3.207 3.026l-.224 1.468c-.758 5.306-1.096 11.361.645 14.037.756 1.447 1.17 3.049 1.209 4.682 0 2.536 3.83 7.803 3.83 7.803s-3.023 21.653 2.016 29.066 9.272 20.873 6.853 23.994c0 0-4.233 9.168-2.217 13.265s0 6.437-2.62 7.413-2.395 8.973-2.395 8.973l4.813 38.039s2.62 7.803.403 10.534-2.217 16.386 1.209 21.068-4.838 13.265-4.838 13.265-5.039 7.218 3.023 9.559c0 0 1.613.39-1.411 3.511s-3.628 7.023-1.613 8.388c.418.251.855.468 1.307.649l-.251 1.449c-.774 4.073-2.233 9.379-4.886 11.946a85.16 85.16 0 0 0-13.198 17.588c-2.765 5.244-3.975 10.152-.911 12.453 7.256 5.462 16.528 7.218 21.971 5.072s13.102-8.778 13.102-8.778l1.814-7.608s-1.209-4.682 4.838-6.437 11.691-7.998 11.691-7.998v-10.112c1.464-.837 2.877-1.759 4.233-2.762 0 0 2.822-9.949 0-13.265s-3.83-4.487-.202-6.632 4.12-6.827 1.459-10.924c-2.669-4.097-6.902-10.144-3.273-18.727s4.959-34.918 4.959-34.918-1.693-17.947 0-22.043-1.935-12.29-1.935-12.29 1.209-10.144 3.427-14.826 4.031-29.456 4.031-29.456 4.031-10.534 4.031-17.361-6.249-23.214 3.023-27.505c0 0 4.031 3.511 2.419 17.556 0 0 4.636 16.386 4.636 21.458s3.427 23.409 3.427 23.409.403 5.852 1.814 7.998 0 7.998 0 7.998 5.241 4.877 3.83 7.998.242 10.159.242 10.159l-1.25 43.68s-3.628 18.727 4.838 30.041c0 0-3.023 16.581-4.838 17.752s6.652 11.314 6.652 11.314-2.346 6.571 2.419 6.894v10.858a23.2 23.2 0 0 0 6.652 7.413c4.434 3.121 2.62 13.85 2.62 13.85s5.644 13.655 20.56 10.729 16.932-4.292 16.125-9.168c-.29-1.779-.935-4.955-1.862-8.56-1.604-6.266-4.064-13.827-7.006-17.556-4.636-5.876-8.466-18.165-8.466-18.165s-1.814-4.097 0-5.462 1.008-3.901 1.008-3.901 1.766-5.072.177-8.193 3.048-9.559 3.048-9.559l-1.411-30.041 1.411-43.696s-6.249-7.218-3.628-11.509-3.023-10.339-3.023-10.339-.605-.195 1.008-5.072c.965-2.874.821-6.005-.403-8.778 0 0-3.427-12.094 2.62-21.263 0 0 2.62-12.094 3.427-18.337.556-4.338 4.039-20.545 6.112-30.026q.176-.804.337-1.539l5.242.353s-4.636-32.187 0-38.819-3.628-57.351-3.628-57.351-1.975-8.864-3.193-17.908l-.197-1.545a97.71 97.71 0 0 1 11.251-.25c9.675.585 19.149-3.121 19.35-6.828s5.442-18.337 6.249-21.653 1.411-14.631 0-17.362z" transform="translate(-154.965 -103.636)" fill="url(#A)"/><path d="M334.326 637.21v18.063s-5.438 6.215-11.265 7.963-4.661 6.409-4.661 6.409l-1.748 7.575s-7.38 6.604-12.624 8.74-14.178.388-21.17-5.05c-2.952-2.292-1.787-7.178.878-12.399A84.57 84.57 0 0 1 296.452 651c2.556-2.556 3.962-7.839 4.708-11.894.552-3.038.73-5.392.73-5.392z" fill="#4c495a"/><path d="M334.326 650.689v4.584s-5.438 6.215-11.265 7.963-4.661 6.409-4.661 6.409l-1.748 7.575s-7.38 6.604-12.624 8.74-14.178.388-21.17-5.05c-2.952-2.292-1.787-7.178.878-12.399-.124 5.485 1.499 11.646 9.416 11.428 8.544-.271 16.778-3.265 23.501-8.546 0 0-.194-12.819 8.74-15.732 3.265-1.078 6.297-2.765 8.934-4.972z" class="B"/><path d="M405.411 683.435c-14.372 2.913-19.811-10.682-19.811-10.682s1.748-10.682-2.525-13.79a22.92 22.92 0 0 1-6.409-7.38v-17.868l17.48-12.43 9.462 8.375.637.559s3.69 12.236 8.157 18.086c2.836 3.714 5.205 11.242 6.751 17.48.894 3.589 1.515 6.751 1.795 8.522.777 4.856-1.165 6.215-15.538 9.128z" fill="#4c495a"/><path d="M405.411 683.435c-14.372 2.913-19.811-10.682-19.811-10.682s1.748-10.682-2.525-13.79a22.92 22.92 0 0 1-6.409-7.38v-6.922c2.774 2.929 8.002 8.6 9.128 11.001 1.554 3.302 1.748 15.343 8.934 17.48s21.17 4.079 22.335-1.36a30.3 30.3 0 0 1 2.09-5.998c.894 3.589 1.515 6.751 1.795 8.522.777 4.856-1.165 6.215-15.538 9.128zm-103.52-49.721l32.435 3.496v9.548c-3.659 2.167-8.903 4.467-11.848 2.105-4.351-3.48-17.286-7.901-21.318-9.758.552-3.038.73-5.392.73-5.392zm102.354-1.942c-4.467-1.554-12.43 5.244-22.918 9.517a10.92 10.92 0 0 1-4.661 1.041v-8.616l17.48-12.43 9.462 8.375c.146.723.359 1.43.637 2.113z" class="B"/><path d="M415.704 417.934l-1.492 7.007-5.889 29.895c-.777 6.215-3.302 18.257-3.302 18.257-5.827 9.128-2.525 21.17-2.525 21.17a12.47 12.47 0 0 1 .388 8.74c-1.554 4.856-.971 5.05-.971 5.05s5.438 6.021 2.913 10.294 3.496 11.459 3.496 11.459l-1.36 43.506 1.36 29.91s-4.467 6.409-2.937 9.517-.171 8.157-.171 8.157.777 2.525-.971 3.884 0 5.438 0 5.438c-4.467-1.554-12.43 5.244-22.918 9.517s-6.992-5.827-6.992-5.827-8.157-10.1-6.409-11.265 4.661-17.674 4.661-17.674c-8.157-11.265-4.661-29.91-4.661-29.91l1.204-43.49s-1.593-7.007-.233-10.115-3.69-7.963-3.69-7.963 1.36-5.827 0-7.963-1.748-7.963-1.748-7.963-3.302-18.257-3.302-23.307-4.467-21.364-4.467-21.364c1.554-13.984-2.331-17.48-2.331-17.48-8.934 4.273-2.913 20.587-2.913 27.385s-3.884 17.286-3.884 17.286-1.748 24.666-3.884 29.327-3.302 14.761-3.302 14.761 3.496 8.157 1.865 12.236 0 21.947 0 21.947-1.282 26.22-4.778 34.766.583 14.567 3.154 18.645c2.564 4.079 2.09 8.74-1.406 10.876s-2.525 3.302.194 6.604 0 13.207 0 13.207-11.071 8.74-15.926 4.856-20.393-8.934-22.335-10.294-1.36-5.244 1.554-8.352 1.36-3.496 1.36-3.496c-7.769-2.331-2.913-9.517-2.913-9.517s7.963-8.546 4.661-13.207-3.302-18.257-1.165-20.976-.388-10.488-.388-10.488l-4.638-37.873s-.218-7.963 2.307-8.934 4.467-3.302 2.525-7.38 2.136-13.207 2.136-13.207c2.331-3.108-1.748-16.509-6.604-23.889s-1.942-28.939-1.942-28.939-3.69-5.244-3.69-7.769c-.036-1.621-.434-3.214-1.165-4.661-1.678-2.665-1.352-8.693-.622-13.976.707-5.112 1.787-9.525 1.787-9.525z" fill="#5f5d7e"/><path d="M377.637 197.881l-38.262 8.934s-18.839-15.926-14.178-24.472c1.6-2.937 2.307-7.948 2.548-13.246.186-4.141.085-8.468-.093-12.127-.272-5.291-.707-9.198-.707-9.198s39.233-22.141 37.873 0c-.276 3.687-.19 7.392.256 11.063a21.15 21.15 0 0 0 2.245 7.481c2.098 3.737 4.685 3.791 4.685 3.791z" class="D"/><path d="M365.075 158.835c-11.387 8.168-26.904 7.395-37.423-1.865-.272-5.291-.707-9.198-.707-9.198s39.233-22.141 37.873 0c-.276 3.687-.19 7.392.256 11.063z" class="B"/><circle cx="347.533" cy="133.594" r="30.104" class="D"/><path d="M377.637 197.881l-38.262 8.934s-18.839-15.926-14.178-24.472c1.6-2.937 2.307-7.948 2.548-13.246a19.52 19.52 0 0 0 6.969 11.692c8.74 5.827 7.38 13.013 7.38 13.013l15.732-.583c-.971-6.409 4.856-9.905 6.798-10.682s.971-4.273.971-4.273l1.725-11.949c2.098 3.737 4.685 3.791 4.685 3.791zm38.067 220.053l-1.492 7.007c-4.226-.225-9.812-.388-12.298.179-4.273.971-21.364 1.36-21.364 1.36l-42.34 1.499v-1.305a124.84 124.84 0 0 0-14.567.971c-7.186.971-18.451-.388-25.637-1.554a27.6 27.6 0 0 1-6.448-1.74c.707-5.112 1.787-9.525 1.787-9.525z" class="B"/><path d="M412.403 294.603c-.614 3.628-.163 9.641.614 15.577 1.173 9.004 3.076 17.83 3.076 17.83s7.963 50.498 3.496 57.101 0 38.65 0 38.65-13.401-1.165-17.674-.194-21.364 1.36-21.364 1.36l-42.34 1.499v-1.305a124.84 124.84 0 0 0-14.567.971c-7.186.971-18.451-.388-25.637-1.554s-10.1-3.496-9.323-4.661-.777-33.018-.777-33.018l-.194-25.831s-.194-18.257 4.273-22.335c1.826-1.663 3.325-7.808 4.467-14.489 1.639-9.672 2.525-20.471 2.525-20.471l-29.522-79.048-.583-1.554s8.546-13.207 7.186-19.616 7.963-12.042 7.963-12.042 17.674-7.769 18.839-10.1 13.401-2.913 13.401-2.913 6.992-3.69 8.196-6.083c.595-1.356 1.807-2.342 3.255-2.649a19.56 19.56 0 0 0 7 11.84c8.74 5.827 7.38 13.013 7.38 13.013l15.732-.583c-.971-6.409 4.856-9.905 6.798-10.682s.971-4.273.971-4.273l1.818-12.578c.839-2.09 6.728 5.912 6.728 5.912l15.926 5.5c.971.388 13.596 4.273 13.596 4.273s15.538 10.1 15.538 12.624 8.546 16.12 8.546 16.12l-.287 1.538-15.056 82.171z" class="C"/><path d="M350.252 263.139s-33.6-8.934-36.902-11.071-22.724 10.294.971 27.191c0 0 28.974 6.021 36.726 0s-.795-16.12-.795-16.12z" class="D"/><path d="M422.891 209.923l4.079.194 12.042 32.241 8.546 19.616c1.36 2.719.777 13.984 0 17.286s-5.827 17.868-6.021 21.559-9.323 7.38-18.645 6.798-31.075 2.331-31.075 2.331-23.231-2.428-37.485 4.856c0 0-9.128-18.839-8.157-53.994 0 0 16.12-.971 20.199.583s23.889 6.021 26.414 3.69 13.984 4.273 13.984 4.273c1.18-2.591 1.18-5.566 0-8.157-1.942-4.661-5.244-19.228-.971-23.889s17.091-27.385 17.091-27.385z" class="B"/><path d="M413.016 310.18c-9.641.653-20.424 2.098-20.424 2.098s-23.229-2.432-37.485 4.856c0 0-9.128-18.839-8.157-53.994 0 0 16.12-.971 20.199.583s23.889 6.021 26.414 3.69 13.984 4.273 13.984 4.273c1.18-2.591 1.18-5.566 0-8.157-1.942-4.661-5.244-19.228-.971-23.889s17.091-27.385 17.091-27.385l3.791.179-15.056 82.171c-.614 3.628-.163 9.641.614 15.577z" class="B"/><path d="M423.667 210.7l4.079.194 12.042 32.241 8.546 19.616c1.36 2.719.777 13.984 0 17.286s-5.827 17.868-6.021 21.559-9.323 7.38-18.645 6.798-31.075 2.331-31.075 2.331-23.231-2.428-37.485 4.856c0 0-9.128-18.839-8.157-53.994 0 0 16.12-.971 20.199.583s23.889 6.021 26.414 3.69 13.984 4.273 13.984 4.273c1.18-2.591 1.18-5.566 0-8.157-1.942-4.661-5.244-19.228-.971-23.889s17.092-27.385 17.092-27.385z" class="C"/><g fill="#dfe6f5"><path d="M387.48 285.04l-4.846-3.001 27.006-43.616 4.846 3.001z"/><ellipse cx="573.51" cy="333.092" rx="16.416" ry="11.514" transform="matrix(.526439 -.850213 .850213 .526439 -166.57226 541.7095)"/></g><ellipse cx="573.51" cy="333.092" rx="11.783" ry="8.265" transform="matrix(.526439 -.850213 .850213 .526439 -166.57226 541.7095)" class="B"/><path fill="#53526b" d="M373.677 307.333l-4.846-3.001 16.804-27.139 4.846 3.001z"/><path d="M340.346 306.257l11.848-3.302s58.461 1.554 38.844-22.53c0 0-10.294-9.905-31.852-1.942s-27.579 8.934-27.579 8.934z" class="D"/><circle cx="331.606" cy="202.348" r="2.331" class="B"/><circle cx="371.616" cy="200.989" r="2.331" class="B"/><circle cx="331.606" cy="201.571" r="2.331" fill="#fff"/><circle cx="334.908" cy="234.589" r="2.331" class="B"/><circle cx="372.781" cy="232.258" r="2.331" class="B"/><circle cx="334.908" cy="233.812" r="2.331" fill="#fff"/><circle cx="371.81" cy="344.726" r="2.331" class="B"/><circle cx="341.137" cy="344.726" r="2.331" class="B"/><circle cx="371.81" cy="343.949" r="2.331" fill="#fff"/><circle cx="343.467" cy="383.751" r="2.331" class="B"/><circle cx="372.781" cy="381.42" r="2.331" class="B"/><g fill="#fff"><circle cx="343.467" cy="382.974" r="2.331"/><circle cx="341.137" cy="343.949" r="2.331"/><circle cx="372.781" cy="380.643" r="2.331"/><circle cx="371.616" cy="200.212" r="2.331"/><circle cx="372.781" cy="231.481" r="2.331"/></g><path d="M376.277 313.249s.388 53.217 1.554 62.734c0 0 .423-60.225-1.554-62.734zm9.906 24.666c-.801 0 15.926 62.345 16.703 66.812s-12.042-66.812-16.703-66.812zm13.207-10.1c0 .583 9.323 33.795 13.984 35.543s-13.984-35.543-13.984-35.543zm36.708-64.676s-19.811.883-20.393 3.743 20.393-3.743 20.393-3.743zm-34.96 253.265s-14.178 6.021-12.042 6.409 12.042-6.409 12.042-6.409zm-29.328-8.934c-.552-1.242 9.517 5.05 9.517 5.827s-8.74-4.079-9.517-5.827zm13.207 20.393s11.071-.559 11.847 3.702-11.847-3.702-11.847-3.702zm-79.63-.024s12.042-2.355 13.013 0-13.013 0-13.013 0zm4.467 73.246s.79 9.905-2.13 12.236 2.13-12.236 2.13-12.236zm-1.471 20.976c3.801.388 23.806-3.108 23.612 0s-23.612 0-23.612 0zm91.784-12.042s-6.823-1.049-5.159 3.554z" class="B"/><use xlink:href="#B" class="B"/><path d="M349.281 282.367c-2.913 1.165-6.604 25.637-7.963 38.262s-3.108 14.567-5.05 13.207c-1.577-1.103-29.413-7.334-39.815-9.633 1.639-9.672 2.525-20.471 2.525-20.471l-29.522-79.048h3.108c26.414-19.422 27.191 40.01 28.551 45.254.818 3.117.818 6.392 0 9.509 0 0-4.467 6.806-2.525 5.64s14.178-.388 14.178-.388 9.323-.583 11.265-.194 25.249-2.136 25.249-2.136z" class="B"/><use xlink:href="#B" x="-0.777" y="0.777" class="C"/><path d="M285.188 293.438s-10.682 20.199-12.624 17.868 12.624-17.868 12.624-17.868zm-11.071-11.502s-9.905 8.2-5.244 10.337 5.244-10.337 5.244-10.337zm9.323-10.057c.777.194 14.372 2.894 14.567 4.069s-14.567-4.069-14.567-4.069zm94.282-142.278a2 2 0 0 0-1.328 2.082c-.792.699-1.903-.124-2.548-1.018-.653-.886-1.391-1.981-2.377-1.857a8.56 8.56 0 0 0-1.36.567c-1.554.497-2.867-1.328-3.737-2.929q-2.272-4.207-4.545-8.406c-3.038 1.764-6.627-.085-9.641-1.911s-6.604-3.682-9.649-1.919c-4.467 2.579-4.63 11.179-9.261 13.3-1.492.684-3.224.536-4.607 1.476-1.367.932-2.105 2.727-2.719 4.444-.227.977-.761 1.857-1.523 2.509a3.35 3.35 0 0 1-1.569.381 6.73 6.73 0 0 1-4.04-.567c-1.356-.852-1.937-2.532-1.398-4.04.037-.078.078-.153.124-.225.498-.602.945-1.243 1.336-1.919.466-1.235-.202-2.672-.054-4.009.241-2.284 2.657-3.488 3.069-5.733.171-.878-.008-1.818.155-2.704a2.46 2.46 0 0 1 .093-.342l-1.422.979c1.593-1.857 2.393-4.436 3.558-6.689a20.6 20.6 0 0 1 12.57-10.232c5.065-1.476 10.418-1.072 15.53.179a51.14 51.14 0 0 1 13.821 5.695c1.537.824 2.903 1.934 4.024 3.271a25.19 25.19 0 0 1 2.385 4.405c1.507 3.123 5.625 6.013 2.346 6.448-2.727.365-.241 2.276 1.189 3.566a3.71 3.71 0 0 1 .823.901c.482.999.418 2.175-.171 3.115-.552.699 1.686.839.925 1.181z" class="B"/><path d="M377.722 128.824c-.869.306-1.417 1.165-1.328 2.082-.792.699-1.903-.124-2.548-1.018-.653-.886-1.391-1.981-2.377-1.857-.469.15-.924.339-1.36.567-1.554.497-2.867-1.328-3.737-2.929q-2.272-4.207-4.545-8.406c-3.038 1.764-6.627-.085-9.641-1.911s-6.604-3.682-9.649-1.919c-4.467 2.579-4.63 11.179-9.261 13.3-1.492.684-3.224.536-4.607 1.476-1.367.932-2.105 2.727-2.719 4.444-.227.977-.761 1.857-1.523 2.509-.484.253-1.023.384-1.569.381-1.373.233-2.784.035-4.04-.567-1.356-.852-1.937-2.532-1.398-4.04.037-.078.078-.153.124-.225.498-.602.945-1.243 1.336-1.919.466-1.235-.202-2.672-.054-4.009.241-2.284 2.657-3.488 3.069-5.733.171-.878-.008-1.818.155-2.704a2.46 2.46 0 0 1 .093-.342l-1.422.979c1.593-1.857 2.393-4.436 3.558-6.689a20.6 20.6 0 0 1 12.57-10.232c5.065-1.476 10.418-1.072 15.53.179a51.14 51.14 0 0 1 13.821 5.695c1.537.824 2.903 1.934 4.024 3.271a25.19 25.19 0 0 1 2.385 4.405c1.507 3.123 5.625 6.013 2.346 6.448-2.727.365-.241 2.276 1.189 3.566a3.71 3.71 0 0 1 .823.901c.482.999.418 2.175-.171 3.115-.552.699 1.686.839.925 1.181z" fill="#865a61"/><path d="M376.145 123.626l-.311 3.271s-32.598-41.315-57.956 5.337l-.334-1.523c.498-.602.945-1.243 1.336-1.919.466-1.235-.202-2.672-.054-4.009.241-2.284 2.657-3.488 3.069-5.733.171-.878-.008-1.818.155-2.704a2.46 2.46 0 0 1 .093-.342l-1.422.979c1.593-1.857 2.393-4.436 3.558-6.689a20.6 20.6 0 0 1 12.57-10.232c5.065-1.476 10.418-1.072 15.53.179a51.14 51.14 0 0 1 13.821 5.695c1.537.824 2.903 1.934 4.024 3.271a25.19 25.19 0 0 1 2.385 4.405c1.507 3.123 5.625 6.013 2.346 6.448-2.727.365-.241 2.276 1.189 3.566z" class="B"/><path d="M376.949 128.401c-.326.366-.462.863-.37 1.345-.792.699-1.903-.124-2.548-1.018-.653-.886-1.391-1.981-2.377-1.857a8.56 8.56 0 0 0-1.36.567c-1.554.497-2.867-1.328-3.737-2.929q-2.272-4.207-4.545-8.406c-3.038 1.764-6.627-.085-9.641-1.911s-6.604-3.682-9.649-1.919c-4.467 2.579-4.63 11.179-9.261 13.3-1.492.684-3.224.536-4.607 1.476-1.367.932-2.105 2.727-2.719 4.444-.227.977-.761 1.857-1.523 2.509a3.35 3.35 0 0 1-1.569.381 6.74 6.74 0 0 1-4.04-.567c-.752-.499-1.292-1.26-1.514-2.136-.316 1.425.288 2.897 1.514 3.689a6.74 6.74 0 0 0 4.04.567 3.35 3.35 0 0 0 1.569-.381 4.71 4.71 0 0 0 1.523-2.509c.614-1.717 1.352-3.512 2.719-4.444 1.383-.94 3.115-.792 4.607-1.476 4.63-2.121 4.793-10.721 9.261-13.3 3.045-1.764 6.635.093 9.649 1.919s6.604 3.675 9.641 1.911q2.272 4.195 4.545 8.406c.87 1.6 2.183 3.426 3.737 2.929a8.47 8.47 0 0 1 1.36-.567c.987-.124 1.725.971 2.377 1.857.645.893 1.756 1.717 2.548 1.018a2 2 0 0 1 1.328-2.082c.606-.272-.683-.417-.959-.816zm-2.54-7.762c.235-.094.482-.157.734-.185 1.445-.192 1.452-.862.879-1.817a2.27 2.27 0 0 1-.879.264c-1.56.209-1.412.924-.734 1.739zm2.976 6.507a3.51 3.51 0 0 0-.008-1.519 2.24 2.24 0 0 1-.394.855c-.243.308.056.508.402.664zm-58.328-2.238l-.045.269a8.91 8.91 0 0 0 .152 2.088 7.35 7.35 0 0 0-.107-2.357zm3.154-9.478a11.27 11.27 0 0 1-1.303 1.947l1.254-.863a8.69 8.69 0 0 1 .049-1.084z" class="B"/><path d="M317.877 131.457s-4.688-20.956-3.196-24.316c0 0-4.048-8.303-4.048-10.28a19.63 19.63 0 0 0-2.983-9.292c-2.131-3.361-4.475-18.979 8.31-22.735s22.586-7.117 24.078-9.687 23.438-.988 29.405 8.896 9.802 7.908 9.802 7.908 9.162 5.733 9.162 10.873-2.77 7.71 0 8.896.639 22.537-11.506 23.13l-1.065 11.269s-32.601-41.318-57.957 5.338z" class="C"/><path d="M319.273 68.918s-2.816 16.509 2.331 22.044zm13.207-3.787s-7.186 17.674-5.438 21.073zm6.216-5.633s-4.856 23.015-2.525 24.86zm8.351 6.215s-6.021 14.761-3.593 16.8zm11.362 1.748s-7.089 12.042-5.632 14.178zm14.567 11.751s-7.575 2.039-6.021 4.467zm7.186 12.527s-6.798 3.302-5.535 5.05zm-65.481 15.402s43.419-17.636 62.218 7.71c0 0-22.82-19.402-62.218-7.71z" class="B"/><path fill="#53526b" d="M298.991 252.052l6.05-6.12 17.105 16.908-6.05 6.121-15.731-15.55-1.374-1.359z"/><path d="M259.301 212.818s26.479 2.253 51.124 29.993l-10.272 10.391z" fill="#dfe6f5"/><path d="M338.724 262.417s-25.45-9.278-27.951-11.496-17.212 10.689.736 28.236c0 0 21.947 6.252 27.818 0s-.602-16.74-.602-16.74z" class="D"/><path fill="#535461" d="M804.65 439.739h5.175v116.436h-5.175z"/><path d="M842.327 555.821l-.328 5.244-.457 7.4-.19 3.088-.457 7.409-.198 3.088-.457 7.4-5.218 84.187a14.26 14.26 0 0 1-14.231 13.377h-27.108c-7.531-.001-13.761-5.861-14.222-13.377l-5.227-84.187-.457-7.4-.19-3.088-.466-7.409-.19-3.088-.457-7.4-.328-5.244c-.125-2.034.596-4.03 1.992-5.514s3.344-2.326 5.382-2.326h55.441a7.38 7.38 0 0 1 7.366 7.84z" fill="#65617d"/><path d="M841.999 561.065l-.457 7.4h-68.611l-.457-7.4h69.525zm-.647 10.488l-.457 7.409h-67.308l-.466-7.409h68.231zm-.655 10.496l-.457 7.4h-66.006l-.457-7.4h66.92z" fill="#9d9cb5"/><path d="M764.576 483.381c30.12 21.788 42.661 55.869 42.661 55.869s-36.294-1.244-66.414-23.032-42.661-55.869-42.661-55.869 36.294 1.244 66.414 23.032z" class="C"/><path d="M698.162 460.349s37.671 20.911 49.756 38.222 59.319 40.679 59.319 40.679" fill="none" class="E F G"/><path d="M784.017 439.482c16.394 11.859 23.22 30.409 23.22 30.409s-19.754-.677-36.149-12.536-23.22-30.409-23.22-30.409 19.754.677 36.149 12.536z" class="C"/><path d="M747.868 426.945s20.504 11.382 27.082 20.804 32.287 22.141 32.287 22.141" fill="none" class="E F G"/><path d="M831.06 468.947c-18.83 20.697-22.814 47.739-22.814 47.739s26.547-6.514 45.377-27.21 22.814-47.739 22.814-47.739-26.547 6.514-45.377 27.21z" class="C"/><path d="M876.437 441.736s-24.528 21.215-30.762 35.832-37.429 39.117-37.429 39.117" fill="none" class="E F G"/></svg>