<svg xmlns="http://www.w3.org/2000/svg" xmlns:xlink="http://www.w3.org/1999/xlink" width="1036.608" height="758.001" xmlns:v="https://vecta.io/nano"><circle cx="578.606" cy="373" r="373" fill="#f2f2f2"/><circle cx="692.607" cy="136.001" r="97" fill="#ff6584"/><g fill="#587499"><path d="M285.964 72.484l2.652 55.277c10.991 14.659 22.848 31.434 34.55 49.716l1.671-84.33.922.589c-13.536-9.67-27.296-17.068-40.716-21.764zm.719 52.708l-2.568-53.545c-15.071-5.14-29.695-6.845-43.062-4.461-.695.124-1.379.267-2.061.412 3.397 3.644 23.189 25.163 47.691 57.595zm121.693 65.947l.89.849q-5.479-10.305-11.616-20.038l-24.925 98.072-.422-.372q2.703 6.454 5.141 12.819zm-37.97-55.756l.918.735a258.81 258.81 0 0 0-44.628-41.701l-1.703 85.937q16.335 25.778 29.249 50.782zm-180.804 26.83a216.05 216.05 0 0 0 8.537 42.701l148.632 15.331c-7.759-14.309-15.769-27.733-23.545-39.967L189.98 163.381zm13.944 58.741l-.4-1.166 150.429 13.371q-2.726-5.332-5.513-10.523l-149.18-15.387-.392-1.168q2.255 7.354 5.057 14.873zm192.41-51.049l.905.797a309 309 0 0 0-24.667-33.563l-16.383 97.048q8.517 16.722 15.428 32.973zm-3.181 162.114c5.978 25.871 8.244 50.332 6.748 73.113 8.412-17.924 40.403-92.177 28.445-161.379zm-161.633-58.762a299.04 299.04 0 0 0 25.949 30.461l-.363-1.296 133.811 27.528a371.63 371.63 0 0 0-13.01-42.596zm54.386-147.162c-26.518-35.082-47.442-57.255-47.743-57.572l.345-.739c-20.124 4.569-34.332 18.26-42.15 38.077zm93.155 159.666l1.474 3.956a369.22 369.22 0 0 1 11.703 38.435l34.859-87.429.851.854a146.38 146.38 0 0 0-11.129-35.229q-3.084-6.602-6.458-13.006zm-57.015-107.922c-11.582-18.067-23.305-34.64-34.17-49.126l-91.603-20.699-.311-1.156c-5.719 15.06-7.809 33.56-6.077 54.223zm69.413 154.407l-132.832-27.327c55.872 57.355 134.04 101.341 139.029 104.122 2.328-25.27-.312-51.226-6.197-76.795zm-14.493-47.247l.03-.087a501.54 501.54 0 0 0-21.835-49.375l-150.799-13.404q3.84 10.17 8.681 20.557a179.71 179.71 0 0 0 16.701 28.132zm191.823-26.329l-33.214 44.265c-.885 18.3-2.452 38.783-5.1 60.327l55.074-63.884.334 1.042c-4.258-16.081-10.137-30.556-17.478-42.732zm-33.065 41.054l32.174-42.877c-8.33-13.572-18.505-24.212-30.32-30.902a64.11 64.11 0 0 0-1.85-.998c.292 4.973 1.81 34.171-.004 74.777z"/><path d="M587.011 428.134l.144 1.221q2.353-11.431 3.834-22.842L509.24 466.15l-.088-.555q-2.034 6.694-4.217 13.152zm6.318-67.161l.238 1.151a258.78 258.78 0 0 0-7.775-60.582l-56.124 65.101q-3.861 30.273-9.862 57.767zm-156.366-94.655a216.05 216.05 0 0 0-20.66 38.333L521 411.258c3.15-15.969 5.543-31.417 7.358-45.8l-91.848-97.999zm-26.726 54.136l.436-1.154 107.33 106.244q1.302-5.845 2.466-11.62l-105.083-107 .443-1.15q-2.954 7.103-5.592 14.68z"/><path d="M590.989 403.858l.188 1.191c1.737-13.791 2.542-27.684 2.409-41.583l-74.516 64.296q-4.106 18.311-9.148 35.236zM485.14 526.687c-11.896 23.738-25.753 44.023-41.435 60.615 17.911-8.439 89.91-45.224 124.838-106.15zm-87.009-148.349a298.81 298.81 0 0 0 .558 40.011l.547-1.23 85.502 106.549a371.63 371.63 0 0 0 17.148-41.105zm135.75-78.655c1.951-43.933-.022-74.357-.051-74.793l.737-.349c-18.413-9.316-38.088-7.834-56.749 2.443zM503.79 482.072l-1.388 3.987a369.22 369.22 0 0 1-15.501 37.066l82.612-45.103.111 1.201a146.38 146.38 0 0 0 13.898-34.231q1.836-7.052 3.322-14.136zm24.923-119.485c2.603-21.302 4.145-41.543 5.016-59.631l-57.349-74.368.498-1.088c-14.01 7.951-27.42 20.867-39.265 37.886zm-45.022 163.195l-84.876-105.769c6.45 79.81 38.599 163.545 40.668 168.868 17.91-17.978 32.432-39.653 44.208-63.099zm18.972-45.633l.079-.048a501.54 501.54 0 0 0 14.674-51.955L409.822 321.64q-3.528 10.282-6.426 21.369a179.71 179.71 0 0 0-5.081 32.319z"/><path d="M237.239 317.768l19.608 51.75c14.984 10.544 31.445 22.832 48.225 36.602l-24.477-80.717 1.059.275c-15.862-5.012-31.235-7.795-45.45-8.113zm16.976 49.905l-18.993-50.129c-15.922-.23-30.357 2.669-42.332 9.067-.623.333-1.229.68-1.833 1.029 4.356 2.415 29.831 16.763 63.158 40.033zm136.117 25.102l1.108.532q-8.396-8.107-17.241-15.467l6.61 100.974-.516-.223q4.565 5.302 8.852 10.602zm-53.344-41.289l1.1.415c-17.358-10.776-35.932-19.457-55.332-25.864l24.943 82.255q23.503 19.467 43.514 39.254zm-163.657 81.402a216.05 216.05 0 0 0 21.318 37.971l146.092-31.362c-11.802-11.209-23.569-21.5-34.746-30.733l-131.943 25.118zm31.418 51.555l-.741-.986 147.195-33.781q-4.24-4.229-8.495-8.303L196.077 472.85l-.734-.99q4.418 6.297 9.406 12.582zM371.957 376.42l1.107.479c-10.719-8.85-22.022-16.967-33.833-24.295l14.417 97.359q13.269 13.27 24.865 26.59zm47.084 155.159c13.682 22.756 23.397 45.319 29.017 67.447 2.46-19.646 9.933-100.152-22.83-162.269zm-171.881-5.924a298.91 298.91 0 0 0 34.094 20.948l-.746-1.12 135.767-15.18a371.65 371.65 0 0 0-25.539-36.489zm6.235-156.766c-36.063-25.167-62.816-39.787-63.201-39.996l.099-.809c-17.726 10.565-27.007 27.978-28.316 49.241zm137.946 123.053l2.624 3.307a369.22 369.22 0 0 1 23.01 32.935l6.128-93.923 1.074.549a146.38 146.38 0 0 0-21.473-30.064q-4.974-5.326-10.161-10.373zm-87.581-85.014c-16.599-13.602-32.871-25.74-47.681-36.159l-93.515 8.629-.653-1.003c-.784 16.09 2.946 34.331 10.98 53.447zM417.5 532.319l-134.774 15.069c70.864 37.276 158.8 54.947 164.404 56.049-5.597-24.752-16.131-48.621-29.631-71.118zm-28.387-40.454l.001-.092a501.54 501.54 0 0 0-36.028-40.207L205.528 485.43q6.796 8.484 14.61 16.867a179.71 179.71 0 0 0 24.578 21.593z"/></g><use xlink:href="#B" fill="#3f3d56"/><use xlink:href="#B" opacity=".1"/><ellipse cx="522.608" cy="634.001" rx="514" ry="81" fill="#3f3d56"/><use xlink:href="#C" opacity=".1"/><use xlink:href="#C" y="-12" fill="#3f3d56"/><path d="M344.138 403.233a21.87 21.87 0 0 1 5.987-3.002c13.555-5.043 27.757-8.135 42.182-9.182 12.543-.889 26.137.167 35.933 8.05 1.524 1.118 2.771 2.571 3.645 4.247 1.232 2.66.859 5.751.46 8.655a9.78 9.78 0 0 1-.839 3.258c-1.318 2.51-4.564 3.389-7.383 3.088s-5.464-1.494-8.245-2.047c-1.721-.3-3.461-.477-5.208-.53l-17.44-.944c-10.845-.587-21.832-1.164-32.47 1.024-3.275.589-6.439 1.679-9.381 3.233-2.43 1.364-4.066 3.322-6.32.802-3.961-4.427-6.153-12.562-.921-16.651z" fill="#2f2e41"/><path d="M371.163 410.945s23.457-10.515 32.355 1.618-4.853 7.28-4.853 7.28l-15.368 4.853-16.986-3.235z" fill="#f2f2f2"/><use xlink:href="#D" fill="#ffb9b9"/><use xlink:href="#D" opacity=".1"/><path d="M357.219 588.056c2.175 4.51 3.963 9.196 5.345 14.008a1.14 1.14 0 0 0 1.416.942l14.387-.016c1.776-.002 4.158-.572 4.139-2.348-.013-1.247-1.288-2.025-2.237-2.835-2.634-2.247-3.319-5.953-4.41-9.239-2.12-6.33-6.206-11.818-11.662-15.664-.738-.578-1.586-.997-2.493-1.232a6.95 6.95 0 0 0-2.733.148c-2.526.51-11.957 2.253-10.175 5.927.767 1.582 3.61 3.228 4.802 4.706 1.389 1.744 2.602 3.621 3.622 5.603zm50.031-16.687a32.69 32.69 0 0 1-1.691 3.109c-2.084 3.438-4.544 6.644-6.485 10.165a16.78 16.78 0 0 0-2.364 7.074c-.225 2.542.799 5.035 2.746 6.685 2.089 1.585 4.952 1.658 7.548 1.289s5.176-1.113 7.791-.917c-.881-4.988 3.325-9.378 4.377-14.333.296-1.392.339-2.835.736-4.201a20.59 20.59 0 0 1 1.628-3.601 46.57 46.57 0 0 0 4.394-12.959c.099-.547-12.789-.637-13.998-.375-3.773.816-3.221 4.936-4.681 8.065z" fill="#575a89"/><path d="M307.913 493.003c-3.679 5.758-2.832 13.388-.247 19.713s6.697 11.917 9.512 18.143c1.795 3.969 3.053 8.178 5.074 12.037 2.502 4.779 6.156 8.991 7.835 14.117 1.07 3.268 1.316 6.849 3.05 9.818a30.09 30.09 0 0 0 3.572 4.432c3.735 4.279 6.539 9.287 8.234 14.708 1.585-4.721 6.33-7.816 11.204-8.837s9.924-.327 14.855.369c-2.751-4.261-5.528-8.576-7.167-13.376-1.586-4.642-2.054-9.58-3.122-14.367-2.19-9.817-6.87-18.872-11.502-27.801l23.81-1.889a92.83 92.83 0 0 1 11.698-.434c6.146.29 12.166 1.796 18.279 2.493s12.58.514 18.028-2.345a86.39 86.39 0 0 0-15.5 51.019c4.716-3.654 10.83-4.981 16.636-3.611s10.682 5.291 13.266 10.667c9.331-12.751 8.222-30.503 15.616-44.467 1.52-2.871 3.384-5.546 5.025-8.35a123.09 123.09 0 0 0 7.939-17.544c2.068-5.29 4.152-11.176 2.168-16.498-.824-2.019-2.023-3.864-3.535-5.436-4.266-4.703-10.204-8.183-16.552-8.327-9.745-.222-17.796 7.001-26.344 11.685-10.205 5.424-21.748 7.818-33.269 6.899-11.742-.831-22.957-4.675-34.144-8.06-5.597-1.772-11.285-3.239-17.04-4.396-4.797-.9-9.367.097-14.094 1.324-5.147 1.336-10.321 3.677-13.283 8.313z" fill="#2f2e41"/><path d="M409.584 387.893a24.29 24.29 0 0 1-24.266 24.266 23.68 23.68 0 0 1-4.311-.388c-12.636-2.282-21.307-14.013-19.781-26.762s12.72-22.103 25.538-21.338 22.821 11.383 22.82 24.223z" fill="#ffb9b9"/><path d="M371.163 410.945s4.449 2.022 6.066 3.64 6.471 10.515 14.56 4.853 8.898-8.898 11.324-8.898 5.662 4.853 5.662 4.853l22.244 66.731a93.16 93.16 0 0 1-20.626 17.391c-12.942 8.089-28.31 12.133-35.59 8.898s-21.03-5.662-23.457-12.133-6.471-25.884-6.471-25.884l11.324-49.341z" fill="#f2f2f2"/><path d="M368.039 478.435c1.763-3.809 2.02-8.121 2.169-12.315a74.59 74.59 0 0 0-.329-12.458c-.717-5.411-2.479-10.623-3.591-15.967a67.5 67.5 0 0 1-1.415-14.25c.016-2.184.174-4.484 1.365-6.315.83-1.278 2.129-2.267 2.648-3.7 1.017-2.809-1.496-5.751-4.251-6.908a16.73 16.73 0 0 0-10.471-.42 49.82 49.82 0 0 0-9.849 4.029 22.55 22.55 0 0 0-6.435 4.16c-2.511 2.598-3.615 6.217-4.506 9.718-.714 2.802-1.348 5.725-.805 8.565.882 4.613 4.642 8.082 6.646 12.329 2.328 4.931 2.171 10.678 1.245 16.052s-2.569 10.628-3.076 16.058.271 11.266 3.673 15.528c1.386 1.737 5.147 5.853 7.684 5.387 1.994-.366 4.884-4.755 6.49-6.146 4.64-4.019 10.144-7.593 12.809-13.348zm42.379-70.128c.071 4.511-1.918 8.799-4.256 12.658s-5.086 7.508-6.809 11.677c-2.141 5.22-2.579 10.983-1.249 16.466a53.12 53.12 0 0 0 1.784 5.51l4.432 12.156a21.1 21.1 0 0 0 2.57 5.396 17.44 17.44 0 0 0 3.493 3.36 32.6 32.6 0 0 0 11.396 5.945 19.27 19.27 0 0 0 12.672-.723c.427-16.479 3.075-32.826 7.871-48.598.886-2.912 1.854-5.977 1.171-8.942-.766-3.322-3.434-5.816-5.97-8.093-7.757-6.966-16.287-14.282-26.67-15.221-6.009-.543-.485 5.149-.434 8.411z" fill="#2f2e41"/><path d="M357.337 502.349c.615 1.204.998 2.516 1.606 3.723a20.83 20.83 0 0 0 3.3 4.438c5.408 5.997 12.019 11.971 20.086 12.333a5.51 5.51 0 0 0 2.368-.298c1.385-.709 2.329-2.058 2.52-3.602.572-3.132-.811-6.258-2.195-9.126-3.001-6.215-6.377-12.587-11.995-16.596-5.684-3.895-12.839-4.971-19.417-2.921-2.926.902-7.779 2.476-3.904 5.146 2.939 2.026 5.927 3.567 7.631 6.903zm34.873-79.124a18.08 18.08 0 0 0-3.796-6.121c-1.677-1.418-3.663-2.424-5.798-2.938a31.71 31.71 0 0 0-8.506-1.219c-3.426-.021-7.398.898-8.852 3.999-1.155 2.463-.26 5.379.903 7.838.497 1.274 1.325 2.392 2.398 3.239 1.477.998 3.388.966 5.139 1.301 2.715.689 5.287 1.855 7.595 3.442l6 3.627 10.306 6.229c-.272-.164-.175-7.231-.492-8.39-1.02-3.731-3.315-7.475-4.897-11.009z" fill="#ffb9b9"/><g fill="#2f2e41"><path d="M362.189 600.232c-2.411 3.277-1.928 7.961-4.064 11.424-1.852 3.002-5.341 4.575-7.657 7.235-.739.884-1.398 1.831-1.969 2.832-2.148 3.599-3.895 8.211-1.779 11.829 1.702 2.91 5.28 4.048 8.561 4.823 4.147.98 8.456 1.764 12.651 1.015s8.295-3.318 9.791-7.308a28.23 28.23 0 0 1 1.047-2.954c2.274-4.476 9.406-4.525 11.733-8.974 1.629-3.113.132-6.877-1.365-10.056l-4.57-9.71c-1.517-3.222-7.665-1.369-10.87-2.141-4.18-1.007-8.502-2.117-11.509 1.984z"/><path d="M397.54 591.891a12.99 12.99 0 0 0-4.135 5.665c-2.262 5.218-3.039 10.939-3.793 16.576a20.08 20.08 0 0 0-.131 6.799c.975 4.604 5.146 7.994 9.637 9.402s9.306 1.191 14.007.96a10.03 10.03 0 0 0 4.403-.894c2.362-1.302 3.285-4.364 2.88-7.031s-1.862-5.04-3.288-7.329-2.884-4.661-3.293-7.327c-.687-4.485 1.252-11.069-1.504-15.126-2.761-4.066-11.098-4.276-14.783-1.694zm11.433-216.645a6.16 6.16 0 0 0-2.671-3.487 14.13 14.13 0 0 0-.564-4.602c-1.47-4.344-4.951-4.095-8.235-6.016-1.425-.833-1.337-1.57-2.079-2.939-.972-1.794-2.428-3.28-4.203-4.288-2.107-1.343-4.332-2.725-6.825-2.895-5.239-.357-9.256 4.571-14.263 6.152-2.207.697-4.579.726-6.797 1.385s-4.432 2.232-4.763 4.523c-.153 1.058.117 2.143-.038 3.2-.308 2.101-2.151 3.573-3.386 5.302-2.729 3.822-2.417 9.222-.235 13.38.46.861.986 1.684 1.574 2.463a15.15 15.15 0 0 0 1.662 5.626c2.183 4.159 5.938 7.266 9.861 9.848a23.32 23.32 0 0 1-.582-4.199c-.055-.471.006-.949.179-1.391.437-.913 1.591-1.156 2.472-1.656 1.823-1.036 2.538-3.329 2.591-5.425s-.392-4.196-.172-6.282a3.43 3.43 0 0 1 1.175-2.525 4.06 4.06 0 0 1 2.215-.528c3.736-.152 7.639-.221 10.934-1.988a16.16 16.16 0 0 1 3.403-1.721c2.8-.73 5.662 1.232 7.276 3.635s2.418 5.261 3.907 7.742 4.061 4.694 6.94 4.4a1.15 1.15 0 0 0 .86-.382 1.29 1.29 0 0 0 .158-.732l.161-11.005a16.62 16.62 0 0 0-.555-5.593zm-76.794 57.563c-2.315 3.416-4.985 6.7-6.257 10.625-.748 2.307-.98 4.746-1.522 7.11-1.804 7.874-7.015 14.868-7.539 22.93a10.9 10.9 0 0 0 .766 5.265c1.495 3.252 5.072 4.965 8.485 6.043s7.077 1.855 9.801 4.176c1.371 1.315 2.615 2.756 3.714 4.306a35.97 35.97 0 0 0 17.184 11.757c-.534-3.681-.785-8.117 2.157-10.392 1.593-1.231 3.721-1.451 5.726-1.624l9.477-.819c-6.32-6.13-13.286-11.556-20.775-16.184-2.621-1.619-5.473-3.327-6.67-6.165a14.89 14.89 0 0 1-.756-5.688c-.065-7.048-.662-14.082-1.785-21.041-.78-4.832-1.813-9.62-2.995-14.37-.332-1.333-2.292-7.314-4.705-5.915-.568.33-1.1 4.124-1.432 4.911-.79 1.782-1.753 3.481-2.875 5.075zm109.157-12.907l3.87 8.049a19.34 19.34 0 0 1 2.44 10.884l.23 24.145a35.16 35.16 0 0 1-.794 9.615 7.7 7.7 0 0 1-1.335 2.871 8.98 8.98 0 0 1-2.289 1.844c-7.325 4.577-16.823 7.178-24.562 3.343a33.99 33.99 0 0 1-5.036-3.287c-3.084-2.284-6.214-4.613-8.522-7.68-2.415-3.21-3.799-7.053-5.423-10.726a82.43 82.43 0 0 0-11.206-18.379 4.85 4.85 0 0 1-1.388-2.751c-.048-2.116 2.463-3.158 4.421-3.963 3.345-1.376 6.499-4.03 7.059-7.603 7.113 9.327 14.961 19.182 26.185 22.59a1.16 1.16 0 0 0 1.781-.99c.637-2.666.862-5.411 1.328-8.111a46.2 46.2 0 0 1 4.874-14.057c1.329-2.462 5.634-11.475 8.365-5.793z"/></g><path d="M345.294 443.178a37.12 37.12 0 0 1-3.547 16.543 13.67 13.67 0 0 0-1.389 3.644c-.425 2.719 1.123 5.352 2.892 7.461a30.68 30.68 0 0 0 13.117 9.125m72.97-41.588c-.57 1.534-.052 3.229.387 4.805a48.42 48.42 0 0 1 1.765 14.049.51.51 0 0 1-.598.613c-1.867.114-4.004.126-5.271-1.25" opacity=".1"/><ellipse cx="746.608" cy="640.001" rx="126" ry="27" opacity=".1"/><path fill="#a0616a" d="M809.608 399.001l-9 9 9 9 9-18h-9z"/><path d="M811.634 320.961c2.526 1.034 3.727 3.859 4.679 6.417l11.675 31.371 2.272 6.106 3.172 9.044q.894 2.897 1.579 5.853a15.39 15.39 0 0 1 .538 5.189 14.42 14.42 0 0 1-2.063 5.406c-4.062 7.074-9.846 13.007-16.816 17.247-.817-5.271-4.254-9.766-9.126-11.936l6.037-3.32c1.277-.6 2.426-1.441 3.383-2.478a7.43 7.43 0 0 0 1.292-5.663 24.34 24.34 0 0 0-1.792-5.682c-2.025-5.055-3.783-10.214-5.265-15.454-.877-3.1-1.682-6.285-3.42-8.998-1.576-2.461-3.859-4.428-5.292-6.976-2.183-3.882-2.127-8.662-1.163-13.01.814-3.671 2.179-7.204 3.327-10.778.902-2.808 4.28-3.447 6.984-2.34z" fill="#d0cde1"/><path d="M755.972 237.144c-4.642 1.568-8.848 5.235-9.799 10.041-.441 2.228-.17 4.544-.541 6.785-.86 5.197-4.939 9.166-8.702 12.852s-7.648 7.97-7.923 13.231c-.301 5.76 3.877 11.157 3.154 16.88-.84 6.649-7.862 10.957-9.598 17.43-1.159 4.322.261 8.978 2.598 12.794 4.453 7.272 12.065 12.209 20.171 14.856s16.739 3.203 25.266 3.293c10.382.109 21.655-.783 29.456-7.635a23.6 23.6 0 0 0 7.834-15.362c.741-7.937-2.572-16.139-.287-23.776 1.438-4.807 5.045-9.196 4.506-14.184-.526-4.877-4.786-8.334-7.708-12.274-2.728-3.679-4.384-8.023-6.007-12.306l-5.552-14.655c-1.091-2.881-2.29-5.911-4.722-7.801-4.553-3.54-11.875-2.844-17.199-2.114-4.939.677-10.199.343-14.949 1.947z" fill="#2f2e41"/><use xlink:href="#E" fill="#a0616a"/><use xlink:href="#E" opacity=".1"/><g fill="#a0616a"><path d="M726.303 411.24l9.238 20.65 7.065-8.695-14.129-18.476-2.174 6.521zm-24.725 206.769l-3.804 21.194-6.521 9.238 3.804 2.173 6.521-1.087 7.608-2.717 3.26-12.498 5.978-16.303h-16.846zm69.557-13.042l-2.174 30.432 5.434 4.347 8.695-7.608v-22.28l-11.955-4.891z"/><circle cx="769.233" cy="272.126" r="19.563"/></g><g fill="#d0cde1"><path d="M784.329 298.438a4.53 4.53 0 0 0-3.769-.072 30.59 30.59 0 0 0-3.45 1.798 15.98 15.98 0 0 1-9.287 1.689c-.375-.028-.743-.123-1.085-.279a5.22 5.22 0 0 1-.995-.803 5.76 5.76 0 0 0-7.971.687c-.575.716-.968 1.571-1.595 2.241-1.624 1.737-4.304 1.807-6.681 1.803-4.929-.137-9.857.314-14.679 1.345-4.844 1.045-9.305 3.409-12.89 6.83-.979.92-1.758 2.031-2.29 3.265-.656 1.691-.569 3.59-1.159 5.305-.656 1.91-2.11 3.477-2.699 5.409-.443 1.455-.381 3.075-1.123 4.403 3.176 2.749 5.866 6.414 9.042 9.163 2.103 1.82 4.304 3.789 5.094 6.455a21.13 21.13 0 0 1 .47 5.006c.393 8.038 4.752 15.33 9.627 21.733a24.51 24.51 0 0 0 4.751 5.048 20.62 20.62 0 0 0 8.202 3.293c5.552 1.136 11.266 1.13 16.932 1.073 5.856-.058 11.815-.182 17.381-2.002 2.833-.791 5.382-2.373 7.346-4.562 2.29-2.812 3.183-6.88 6.307-8.722a11.46 11.46 0 0 0 2.136-1.276 5.54 5.54 0 0 0 1.309-2.443 37.84 37.84 0 0 0 1.789-10.547c-.08-2.15.065-4.302.435-6.421.54-1.868 1.327-3.655 2.34-5.314l6.473-11.74c.526-.954.39-2.358.437-3.447a8.5 8.5 0 0 0-1.392-4.408c-4.198-7.42-10.794-13.194-18.705-16.373a7.71 7.71 0 0 1-1.767-.866 7.27 7.27 0 0 1-1.617-1.93c-1.717-2.589-3.816-5.505-6.918-5.343z"/><path d="M703.653 362.375a46.58 46.58 0 0 0-2.796 9.641 23.42 23.42 0 0 0 2.117 13.364c3.488 7.181 10.356 12.051 15.203 18.394 4.504 5.893 7.186 12.957 11.086 19.267-.68-1.606.146-3.465 1.259-4.808s2.536-2.457 3.352-3.998a11.66 11.66 0 0 0 1.033-3.783c.582-3.912.896-8.163-1.098-11.579-1.501-2.571-4.095-4.279-6.148-6.435a19.18 19.18 0 0 1-4.856-16.603c.395-2.034 1.122-3.986 1.667-5.985.674-2.687 1.184-5.412 1.527-8.16l2.447-16.808c.651-4.47 1.201-9.418-1.33-13.159-.494-.783-1.177-1.43-1.986-1.879-.67-.306-1.383-.507-2.114-.595-2.663-.435-6.271-1.602-7.571 1.252-1.569 3.444-2.662 7.199-3.976 10.75z"/></g><g fill="#2f2e41"><path d="M796.918 371.571s-32.304 6.249-39.912 6.249h-13.585s-4.891 8.695-4.891 17.389-32.061 130.42-32.061 130.42-30.431 99.988 3.26 100.532 54.885 2.174 55.428-9.238 3.804-158.677 3.804-158.677l5.072 75.723c1.363 18.746-.093 37.591-4.319 55.905-2.433 10.267-2.055 21.524 10.115 23.788 23.367 4.347 52.711.543 52.711-7.608s-15.216-189.108-15.216-189.108-7.608-26.627-11.955-28.801-8.452-16.574-8.452-16.574z"/><path d="M695.6 647.354l11.955-4.347 8.151-20.65 8.695-1.087s-4.891 10.325-7.608 11.955-7.064 15.216-7.064 15.216 2.174 5.434-8.151 7.608l-17.933 3.804s-1.087-2.174 3.804-7.608 10.601-14.583 10.601-14.583zm73.361-24.997l-2.174 16.302s5.978 8.695 7.608 8.695 10.325-7.608 10.325-7.608-.543-8.151 0-10.325 1.63-12.499 0-13.042-1.63 12.111-1.63 12.111l-7.064 7.452-6.811-4.084z"/><ellipse cx="770.863" cy="260.714" rx="21.193" ry="11.412"/></g><path d="M0 484.66c0 64.016 40.16 115.817 89.791 115.817" fill="#3f3d56"/><g fill="#587499"><path d="M89.791 600.477c0-64.735 44.817-117.118 100.201-117.118"/><path d="M32.533 490.463c0 60.809 25.61 110.014 57.258 110.014"/></g><path d="M89.791 600.477c0-82.717 51.801-149.651 115.817-149.651" fill="#3f3d56"/><path d="M70.901 601.294s12.734-.392 16.571-3.125 19.588-5.996 20.54-1.613 19.137 21.798 4.76 21.914-33.404-2.239-37.235-4.573-4.637-12.603-4.637-12.603z" fill="#a8a8a8"/><path d="M113.029 616.944c-14.376.116-33.404-2.239-37.235-4.573-2.917-1.777-4.079-8.153-4.468-11.094l-.425.017s.807 10.27 4.637 12.603 22.858 4.688 37.235 4.572c4.15-.033 5.583-1.51 5.505-3.697-.577 1.321-2.159 2.146-5.248 2.171z" opacity=".2"/><defs ><path id="B" d="M1036.608 634.001c0 44.735-230.126 124-514 124s-514-79.265-514-124 230.126-38 514-38 514-6.735 514 38z"/><path id="C" d="M611.721 549.339c0 48.737-67.934 33.663-151.113 33.663s-150.104 15.075-150.104-33.663 67.925-59.337 151.104-59.337 150.113 10.6 150.113 59.337z"/><path id="D" d="M372.376 403.261s3.235 15.368.809 19.413 13.751 9.706 13.751 9.706l15.368-6.471s-4.044-25.075 0-29.928z"/><path id="E" d="M760.267 285.44s.543 16.302-1.087 17.933 6.521 12.499 6.521 12.499l14.672-.543 7.608-5.978-6.521-8.695s-2.717-14.129-.543-17.389-20.65 2.174-20.65 2.174z"/></defs></svg>